<svg width="100" height="100" viewBox="0 0 100 100" fill="none" xmlns="http://www.w3.org/2000/svg">
<circle cx="50" cy="50" r="48.75" fill="white" stroke="#0071F2" stroke-width="2.5"/>
<mask id="mask0_11_540" style="mask-type:luminance" maskUnits="userSpaceOnUse" x="21" y="23" width="59" height="53">
<path d="M79.889 23H21V76H79.889V23Z" fill="white"/>
</mask>
<g mask="url(#mask0_11_540)">
<path d="M34.2795 32.2281V62.3208C34.2613 64.2125 33.5537 66.0202 32.3105 67.351C31.0673 68.6818 29.3888 69.4282 27.6397 69.4282C25.8906 69.4282 24.2122 68.6818 22.969 67.351C21.7257 66.0202 21.0182 64.2125 21 62.3208V32.2281C21.0011 30.3236 21.7016 28.4975 22.9474 27.1515C24.1931 25.8055 25.8822 25.0498 27.643 25.0507C28.7441 25.0475 29.8283 25.344 30.7957 25.9129C30.8108 25.9199 30.8172 25.9284 30.8244 25.9284C30.8282 25.9329 30.8333 25.9356 30.8388 25.9362C31.3894 26.2611 31.8928 26.6721 32.3326 27.1557C32.9499 27.8209 33.4396 28.6114 33.7738 29.4819C34.1078 30.3524 34.2797 31.2857 34.2795 32.2281Z" fill="#0071F2"/>
<path d="M49.4536 38.7298V68.8147C49.4536 69.7578 49.2819 70.6916 48.9481 71.5629C48.6145 72.4342 48.1255 73.2258 47.5089 73.8927C46.8924 74.5596 46.1604 75.0886 45.355 75.4494C44.5494 75.8103 43.6861 75.9961 42.8142 75.9961C41.9423 75.9961 41.0789 75.8103 40.2734 75.4494C39.4679 75.0886 38.736 74.5596 38.1194 73.8927C37.5029 73.2258 37.0138 72.4342 36.6802 71.5629C36.3465 70.6916 36.1748 69.7578 36.1748 68.8147V38.7298C36.1746 37.7862 36.3463 36.8517 36.6801 35.9799C37.0138 35.1081 37.5032 34.3159 38.1201 33.6487C38.737 32.9814 39.4694 32.4521 40.2754 32.0911C41.0814 31.7301 41.9454 31.5444 42.8178 31.5446C43.0548 31.5446 43.2846 31.5601 43.5072 31.5826H43.5223C45.1512 31.7742 46.6574 32.6096 47.752 33.9284C48.8467 35.2472 49.4526 36.9575 49.4536 38.7298Z" fill="#0071F2" fill-opacity="0.44"/>
<path d="M64.7143 30.1774V60.27C64.7143 62.1746 64.0148 64.0012 62.7697 65.348C61.5245 66.6948 59.8358 67.4514 58.0749 67.4514C56.3141 67.4514 54.6253 66.6948 53.3802 65.348C52.135 64.0012 51.4355 62.1746 51.4355 60.27V30.1774C51.4355 29.2342 51.6074 28.3002 51.9413 27.4289C52.2753 26.5576 52.7647 25.766 53.3817 25.0994C53.9986 24.4328 54.731 23.9043 55.5369 23.544C56.3428 23.1838 57.2065 22.9989 58.0785 22.9999C58.3525 22.9968 58.6263 23.0176 58.8972 23.062H58.9116C60.3718 23.2531 61.7301 23.97 62.7681 25.0972C63.3854 25.7639 63.8751 26.5558 64.2091 27.4276C64.5431 28.2993 64.7147 29.2338 64.7143 30.1774Z" fill="#0071F2"/>
<path d="M79.8891 38.3872V68.4729C79.8891 69.416 79.7173 70.3498 79.3837 71.2211C79.05 72.0924 78.561 72.884 77.9445 73.5509C77.3279 74.2177 76.596 74.7467 75.7905 75.1076C74.985 75.4685 74.1216 75.6543 73.2497 75.6543C72.3778 75.6543 71.5144 75.4685 70.709 75.1076C69.9034 74.7467 69.1714 74.2177 68.555 73.5509C67.9384 72.884 67.4494 72.0924 67.1157 71.2211C66.7821 70.3498 66.6104 69.416 66.6104 68.4729V38.3872C66.6102 37.4436 66.782 36.5093 67.1158 35.6374C67.4496 34.7656 67.9389 33.9735 68.5558 33.3063C69.1727 32.639 69.9051 32.1098 70.711 31.7488C71.517 31.3877 72.3809 31.2019 73.2533 31.202C74.1319 31.1981 75.002 31.3887 75.81 31.7621H75.8172C75.8209 31.7665 75.826 31.7693 75.8315 31.7698C76.6221 32.1271 77.3396 32.6498 77.9429 33.3079C78.562 33.9729 79.0529 34.7645 79.387 35.6364C79.7211 36.5084 79.8918 37.4434 79.8891 38.3872Z" fill="#0071F2" fill-opacity="0.44"/>
<g style="mix-blend-mode:multiply" opacity="0.3">
<path d="M34.2795 40.8892V62.3207C34.2613 64.2125 33.5537 66.0201 32.3105 67.3508C31.0673 68.6817 29.3888 69.4281 27.6397 69.4281C25.8906 69.4281 24.2122 68.6817 22.969 67.3508C21.7257 66.0201 21.0182 64.2125 21 62.3207V61.0856C21 61.0856 21.0144 61.2635 21.0431 61.5897C21.0575 61.9238 21.1005 62.4139 21.1731 63.0113C21.2954 63.7232 21.5078 64.4135 21.8043 65.0628C22.3286 66.216 23.1448 67.1845 24.1581 67.8557C25.1714 68.5267 26.3401 68.8727 27.5281 68.8535C28.0668 68.8474 28.6026 68.7665 29.1224 68.6127C30.2203 68.2783 31.2102 67.6192 31.9807 66.7095C32.7696 65.784 33.2891 64.6277 33.4744 63.3849C33.4888 63.2295 33.5247 63.1053 33.5319 62.9266L33.5613 62.3984C33.575 62.1265 33.5678 61.7148 33.575 61.3808C33.575 60.6817 33.5821 59.9748 33.5893 59.2835C33.5893 57.893 33.6324 56.5259 33.6475 55.1976C33.6971 52.5488 33.7761 50.0778 33.8694 47.958C34.0425 43.7167 34.2795 40.8892 34.2795 40.8892Z" fill="black"/>
</g>
<g style="mix-blend-mode:overlay" opacity="0.6">
<path d="M30.8251 25.9285C30.5754 25.8405 30.3213 25.7679 30.0639 25.711C29.4004 25.5447 28.7191 25.4767 28.0387 25.509C27.8247 25.5177 27.6115 25.541 27.4002 25.579C27.1777 25.6085 26.9571 25.6526 26.7395 25.711C25.258 26.0735 23.9368 26.9758 22.9972 28.2666C22.6697 28.7007 22.3946 29.1781 22.1785 29.6874C21.9722 30.1804 21.8157 30.6961 21.7117 31.2254C21.6589 31.4947 21.6203 31.767 21.5961 32.041L21.5745 32.2508C21.5745 32.2585 21.5673 32.375 21.5602 32.4294C21.553 32.5692 21.5458 32.7091 21.5322 32.8411C21.5027 33.3849 21.4524 33.8975 21.4094 34.3714C21.3218 35.4294 21.1852 36.482 21 37.5251V32.2275C21.0013 30.9815 21.3022 29.7574 21.873 28.6752C22.4438 27.593 23.2649 26.6899 24.2558 26.0547C25.2467 25.4194 26.3733 25.0737 27.5251 25.0516C28.6768 25.0295 29.814 25.3317 30.8251 25.9285Z" fill="white"/>
</g>
<g style="mix-blend-mode:multiply" opacity="0.3">
<path d="M49.4536 47.3591V68.8146C49.4536 69.7577 49.2819 70.6915 48.9481 71.5628C48.6145 72.4341 48.1255 73.2258 47.5089 73.8926C46.8924 74.5595 46.1604 75.0884 45.355 75.4494C44.5494 75.8103 43.6861 75.996 42.8142 75.996C41.9423 75.996 41.0789 75.8103 40.2734 75.4494C39.4679 75.0884 38.736 74.5595 38.1194 73.8926C37.5029 73.2258 37.0138 72.4341 36.6802 71.5628C36.3465 70.6915 36.1748 69.7577 36.1748 68.8146V67.9446C36.1748 67.9446 36.1892 68.1233 36.2179 68.4488C36.2433 68.9193 36.3034 69.3868 36.3974 69.847C36.7218 71.4465 37.5461 72.8761 38.7315 73.8948C39.4995 74.549 40.3964 75.0034 41.3527 75.2231C41.5971 75.2765 41.8441 75.3155 42.0924 75.3396C42.3649 75.3599 42.6382 75.3651 42.9111 75.3552C43.4521 75.3231 43.9876 75.2211 44.5062 75.0514C45.5803 74.6703 46.5383 73.9802 47.2775 73.0551C48.0356 72.1142 48.5203 70.9523 48.6708 69.7149C48.7131 69.3957 48.7371 69.0741 48.7426 68.7517L48.7498 67.7023C48.7498 67.0032 48.757 66.3041 48.7649 65.6135C48.7649 64.2386 48.8072 62.8792 48.8223 61.5587C48.8719 58.9324 48.9509 56.4785 49.0442 54.3734C49.2166 50.164 49.4536 47.3591 49.4536 47.3591Z" fill="black"/>
</g>
<g style="mix-blend-mode:overlay" opacity="0.6">
<path d="M43.5072 31.5826C43.4426 31.599 43.1912 31.6378 42.7962 31.6999C42.5736 31.7621 42.3014 31.8087 42.0063 31.9019C41.6768 32.0059 41.3531 32.1301 41.0367 32.274C40.6737 32.4476 40.3233 32.6504 39.9882 32.8807C39.6264 33.1399 39.2831 33.4281 38.9613 33.7429C38.6326 34.0875 38.3345 34.4646 38.0707 34.8692C37.7994 35.2797 37.5682 35.7196 37.3813 36.182C37.1992 36.645 37.0599 37.1263 36.9655 37.619C36.9173 37.8654 36.8811 38.1143 36.8571 38.3648L36.8211 38.7368L36.8068 39.1415C36.7565 40.2057 36.6775 41.1992 36.5842 42.0545C36.4967 43.0123 36.36 43.964 36.1748 44.9053V38.7298C36.1746 37.7862 36.3463 36.8517 36.6801 35.9799C37.0138 35.1081 37.5032 34.3159 38.1201 33.6487C38.737 32.9814 39.4694 32.4521 40.2754 32.0911C41.0814 31.7301 41.9454 31.5444 42.8178 31.5446C43.0548 31.5446 43.2846 31.5601 43.5072 31.5826Z" fill="white"/>
</g>
<g style="mix-blend-mode:multiply" opacity="0.3">
<path d="M64.7143 33.2535V60.27C64.7143 62.1747 64.0148 64.0013 62.7697 65.3481C61.5245 66.6948 59.8358 67.4515 58.0749 67.4515C56.3141 67.4515 54.6253 66.6948 53.3802 65.3481C52.135 64.0013 51.4355 62.1747 51.4355 60.27V59.6642C51.4355 59.6642 51.4499 59.8584 51.4786 60.2235C51.5176 60.7461 51.6017 61.2636 51.73 61.7693C51.9366 62.5397 52.2619 63.2669 52.6923 63.9202C53.2324 64.7545 53.9362 65.4495 54.7534 65.9554C55.7021 66.5511 56.7804 66.8624 57.8774 66.8572C58.4589 66.8643 59.038 66.7752 59.5946 66.593C60.1803 66.4173 60.7374 66.1448 61.2463 65.7853C62.3052 65.0331 63.1229 63.9451 63.5875 62.6704L63.7527 62.1888L63.8676 61.6831C63.9107 61.5129 63.9179 61.3498 63.9466 61.1867C63.9774 61.01 63.9918 60.8305 63.9897 60.6506C64.0256 59.9515 63.9897 59.1049 63.9969 58.3437C64.004 56.7746 64.0112 55.2054 64.0256 53.6596C64.0256 52.1138 64.0687 50.5991 64.083 49.131C64.1333 46.187 64.2123 43.4449 64.3057 41.0912C64.4773 36.3839 64.7143 33.2535 64.7143 33.2535Z" fill="black"/>
</g>
<g style="mix-blend-mode:overlay" opacity="0.6">
<path d="M58.8972 23.062C58.8039 23.0776 58.5669 23.1164 58.215 23.163C57.9995 23.1786 57.7194 23.2788 57.4178 23.3331C57.087 23.4319 56.761 23.5489 56.4411 23.6835C56.074 23.849 55.7187 24.0437 55.3782 24.2661C55.0067 24.5117 54.6561 24.7925 54.3304 25.105C54.1574 25.2603 54.0066 25.4468 53.8493 25.6177C53.7056 25.8196 53.5398 25.9975 53.4105 26.208C53.1298 26.6131 52.8914 27.0505 52.6995 27.5122C52.5012 27.9698 52.3495 28.4493 52.2471 28.9423C52.2183 29.1909 52.1465 29.3773 52.125 29.6725L52.0891 30.0756L52.0819 30.1774V30.1852L52.0747 30.1921V30.2473L52.0675 30.4493C52.0173 31.5212 51.9383 32.5155 51.8449 33.37C51.7576 34.3303 51.621 35.2847 51.4355 36.2285V30.1774C51.4355 29.2342 51.6074 28.3002 51.9413 27.4289C52.2753 26.5576 52.7647 25.766 53.3817 25.0994C53.9986 24.4328 54.731 23.9043 55.5369 23.544C56.3428 23.1838 57.2065 22.9989 58.0785 22.9999C58.3525 22.9968 58.6263 23.0176 58.8972 23.062Z" fill="white"/>
</g>
<g style="mix-blend-mode:overlay" opacity="0.6">
<path d="M75.81 31.7621C75.7453 31.7457 75.4868 31.6914 75.0774 31.6378C74.8405 31.6067 74.5532 31.5904 74.23 31.5826C73.8699 31.5811 73.5101 31.6048 73.1528 31.6533C72.7404 31.7197 72.3326 31.8155 71.9319 31.9399C71.5002 32.0906 71.0819 32.2832 70.6823 32.5155C69.8284 33.021 69.0861 33.7206 68.5063 34.5662C68.2097 34.9895 67.9591 35.4482 67.7594 35.9334C67.567 36.4025 67.4201 36.8919 67.3213 37.3937C67.2676 37.6468 67.2316 37.9039 67.2136 38.1628L67.1921 38.357L67.1849 38.3958L67.1777 38.4261L67.1705 38.5278C67.1633 38.6599 67.1562 38.7842 67.149 38.9162C67.1131 39.4289 67.07 39.9183 67.0197 40.3611C66.9325 41.3651 66.7959 42.3634 66.6104 43.3517V38.3872C66.6102 37.4436 66.782 36.5093 67.1158 35.6374C67.4496 34.7656 67.9389 33.9735 68.5558 33.3063C69.1727 32.639 69.9051 32.1098 70.711 31.7488C71.517 31.3877 72.3809 31.2019 73.2533 31.202C74.1319 31.1981 75.002 31.3887 75.81 31.7621Z" fill="white"/>
</g>
<g style="mix-blend-mode:multiply" opacity="0.3">
<path d="M79.8891 49.1776V68.473C79.8891 69.416 79.7173 70.3498 79.3837 71.2211C79.05 72.0924 78.561 72.8841 77.9445 73.551C77.3279 74.2178 76.596 74.7467 75.7905 75.1076C74.985 75.4685 74.1216 75.6543 73.2497 75.6543C72.3778 75.6543 71.5144 75.4685 70.709 75.1076C69.9034 74.7467 69.1714 74.2178 68.555 73.551C67.9384 72.8841 67.4494 72.0924 67.1157 71.2211C66.7821 70.3498 66.6104 69.416 66.6104 68.473C66.6104 68.473 66.6319 68.6361 66.675 68.9468C66.6931 69.131 66.7267 69.313 66.7755 69.4906C66.82 69.7363 66.8824 69.9778 66.9623 70.213C67.3266 71.4047 67.9787 72.4694 68.8511 73.2971C69.7236 74.1247 70.7848 74.6851 71.9247 74.9203C72.1617 74.9669 72.3844 74.9824 72.6213 75.0135L73.0235 75.0213H73.2892L73.3826 75.0057C73.889 74.9772 74.3905 74.8833 74.8764 74.7261C75.8808 74.3896 76.7884 73.7795 77.512 72.9542C77.8809 72.5303 78.1993 72.0583 78.46 71.549C78.7075 71.0328 78.8933 70.4847 79.013 69.9178C79.077 69.642 79.1226 69.3617 79.1494 69.0789L79.1781 68.5972V68.473L79.1853 68.3867V68.1466C79.1853 67.4941 79.1925 66.8409 79.1997 66.197C79.1997 64.9153 79.2428 63.6414 79.2571 62.4218C79.3074 59.9672 79.3864 57.6757 79.4798 55.7182C79.6521 51.7869 79.8891 49.1776 79.8891 49.1776Z" fill="black"/>
</g>
</g>
</svg>
