<svg width="550" height="461" viewBox="0 0 550 461" fill="none" xmlns="http://www.w3.org/2000/svg">
<g id="analytics" clip-path="url(#clip0_7_98)">
<path id="Vector" d="M506.348 451.803L498.136 451.802L494.23 420.13H506.349L506.348 451.803Z" fill="#9E616A"/>
<path id="Vector_2" d="M508.442 459.762L481.965 459.761V459.426C481.965 456.693 483.051 454.072 484.984 452.139C486.916 450.207 489.538 449.121 492.271 449.121L508.442 449.122L508.442 459.762Z" fill="black"/>
<path id="Vector_3" d="M474.868 451.803L466.657 451.802L462.751 420.13H474.87L474.868 451.803Z" fill="#9E616A"/>
<path id="Vector_4" d="M476.962 459.762L450.486 459.761V459.426C450.486 456.693 451.572 454.072 453.504 452.139C455.437 450.207 458.058 449.121 460.791 449.121L476.963 449.122L476.962 459.762Z" fill="black"/>
<path id="second_bar" d="M120.113 458.537V204.149C120.113 202.582 120.735 201.08 121.843 199.972C122.951 198.864 124.453 198.241 126.02 198.241H152.382C153.949 198.241 155.452 198.864 156.56 199.972C157.667 201.08 158.29 202.582 158.29 204.149V459.2L120.113 458.537Z" fill="black"/>
<path id="third_bar" d="M207.184 459.334V257.061C207.184 255.495 207.806 253.992 208.914 252.884C210.022 251.776 211.524 251.154 213.091 251.154H239.454C241.02 251.154 242.523 251.776 243.631 252.884C244.739 253.992 245.361 255.495 245.361 257.061V458.899L207.184 459.334Z" fill="black"/>
<path id="chart_line" d="M52.4643 219.017C52.0763 219.017 51.6966 218.905 51.3711 218.693C51.0456 218.482 50.7882 218.181 50.63 217.827C50.4719 217.473 50.4197 217.08 50.4798 216.697C50.5399 216.313 50.7098 215.956 50.9688 215.667L139.115 117.349L225.864 166.062L313.128 15.6985L402.026 88.8684C402.23 89.036 402.399 89.2422 402.524 89.4752C402.648 89.7081 402.725 89.9632 402.751 90.226C402.776 90.4888 402.75 90.754 402.673 91.0065C402.596 91.2591 402.47 91.494 402.302 91.6978C402.134 91.9017 401.928 92.0705 401.695 92.1946C401.462 92.3186 401.207 92.3956 400.944 92.421C400.681 92.4464 400.416 92.4197 400.164 92.3426C399.911 92.2655 399.676 92.1393 399.472 91.9714L314.228 21.8089L227.351 171.506L139.957 122.431L53.961 218.349C53.7727 218.56 53.542 218.728 53.2841 218.843C53.0262 218.958 52.7468 219.018 52.4643 219.017Z" fill="black"/>
<path id="first_circ" d="M52.1301 235.762C62.4875 235.762 70.8839 227.365 70.8839 217.008C70.8839 206.651 62.4875 198.254 52.1301 198.254C41.7727 198.254 33.3763 206.651 33.3763 217.008C33.3763 227.365 41.7727 235.762 52.1301 235.762Z" fill="#0071F2"/>
<path id="second_circ" d="M139.201 138.644C149.559 138.644 157.955 130.248 157.955 119.89C157.955 109.533 149.559 101.136 139.201 101.136C128.844 101.136 120.447 109.533 120.447 119.89C120.447 130.248 128.844 138.644 139.201 138.644Z" fill="#CCCCCC"/>
<path id="third_circ" d="M226.272 187.538C236.63 187.538 245.026 179.141 245.026 168.784C245.026 158.427 236.63 150.03 226.272 150.03C215.915 150.03 207.519 158.427 207.519 168.784C207.519 179.141 215.915 187.538 226.272 187.538Z" fill="#E6E6E6"/>
<path id="fourth_circ" d="M313.343 37.5075C323.701 37.5075 332.097 29.1112 332.097 18.7538C332.097 8.39635 323.701 0 313.343 0C302.986 0 294.59 8.39635 294.59 18.7538C294.59 29.1112 302.986 37.5075 313.343 37.5075Z" fill="#0071F2"/>
<path id="Ellipse 304" d="M480.788 177.18C491.145 177.18 499.542 168.783 499.542 158.426C499.542 148.068 491.145 139.672 480.788 139.672C470.43 139.672 462.034 148.068 462.034 158.426C462.034 168.783 470.43 177.18 480.788 177.18Z" fill="#0071F2"/>
<path id="Path 1507" d="M474.157 304.518C481.176 305.364 499.126 298.961 500.098 308.702C509.337 335.899 509.063 440.15 509.063 440.15L494.998 440.82C494.998 440.82 483.758 357.986 478.444 340.264C475.777 361.804 476.244 444.169 476.244 444.169L463.518 444.839C463.518 444.839 452.103 374.701 452.038 354.115C450.651 339.036 454.053 316.691 452.597 302.114C459.557 304.32 466.882 305.137 474.157 304.518Z" fill="black"/>
<path id="Path 1513" d="M381.326 458.433V165.235C381.326 161.475 383.971 158.426 387.233 158.426H413.596C416.858 158.426 419.503 161.474 419.503 165.235V459.2L381.326 458.433Z" fill="black"/>
<path id="Path 1508" d="M450.279 225.619C447.464 219.863 444.026 214.435 440.025 209.43C439.189 208.453 438.428 207.414 437.748 206.322C436.308 203.824 435.879 200.89 434.968 198.158C432.423 190.495 426.074 184.34 424.526 176.417C423.964 173.537 419.211 181.908 420.461 185.479C422.691 191.942 422.979 198.787 425.819 205.03C428.659 211.272 431.994 217.26 434.446 223.643C435.839 227.266 436.951 231.01 438.994 234.359C441.037 237.708 444.225 240.514 448.076 241.017C448.05 238.589 448.419 236.173 449.168 233.864C450.005 231.225 451.492 228.117 450.279 225.619Z" fill="#9E616A"/>
<path id="Path 1509" d="M492.415 229.959C492.243 225.223 492.982 220.498 494.592 216.041C495.208 214.333 495.931 212.598 495.871 210.783C495.784 209.095 494.98 207.548 494.25 206.021C491.732 200.763 489.964 195.191 488.222 189.632L484.873 179.15C483.782 178.349 490.158 178.071 491.518 179.953C495.965 186.129 499.334 193.222 502.857 199.966C503.756 201.573 504.522 203.251 505.148 204.983C506.008 207.789 506.415 210.715 506.353 213.65C506.353 219.135 505.63 224.601 504.88 230.039C504.404 233.448 503.781 237.159 501.203 239.416C498.523 235.987 495.831 232.638 492.415 229.959Z" fill="#9E616A"/>
<path id="Ellipse 307" d="M474.706 224.532C482.382 224.532 488.604 218.31 488.604 210.634C488.604 202.959 482.382 196.736 474.706 196.736C467.031 196.736 460.808 202.959 460.808 210.634C460.808 218.31 467.031 224.532 474.706 224.532Z" fill="#9E616A"/>
<path id="Path 1512" d="M463.408 196.769C463.252 196.347 463.217 195.89 463.307 195.449C463.397 195.009 463.608 194.602 463.917 194.275C464.264 194.001 464.725 193.899 465.097 193.638C465.626 193.194 466.059 192.646 466.369 192.029C467.319 190.7 468.708 189.751 470.291 189.349C471.873 188.947 473.547 189.119 475.015 189.834C477.312 191.036 478.699 193.443 480.742 195.064C481.779 195.904 482.981 196.527 484.025 197.367C486.114 199.172 487.6 201.575 488.281 204.251C488.958 206.909 489.354 209.631 489.461 212.372C489.569 213.194 489.537 214.029 489.366 214.84C489.154 215.521 488.839 216.165 488.431 216.749C486.331 219.93 483.564 222.819 480.096 224.46C476.629 226.102 472.411 226.369 468.991 224.651C468.647 224.512 468.35 224.275 468.139 223.97C467.944 223.506 467.898 222.993 468.005 222.501C468.191 220.557 467.806 218.6 466.898 216.871C466.262 215.598 465.307 214.504 464.799 213.187C464.325 211.713 464.123 210.166 464.2 208.619C464.14 204.613 464.412 200.624 463.408 196.769Z" fill="black"/>
<path id="first_bar" d="M33.0408 458.831V317.28C33.0408 315.465 35.6858 313.993 38.9482 313.993H65.3107C68.5732 313.993 71.2181 315.466 71.2181 317.28V459.2L33.0408 458.831Z" fill="black"/>
<path id="Path 944" d="M549.331 460.675H0.669762C0.492126 460.675 0.321765 460.604 0.196158 460.478C0.0705499 460.353 -1.52588e-05 460.182 -1.52588e-05 460.005C-1.52588e-05 459.827 0.0705499 459.657 0.196158 459.531C0.321765 459.406 0.492126 459.335 0.669762 459.335H549.33C549.508 459.335 549.678 459.406 549.804 459.531C549.929 459.657 550 459.827 550 460.005C550 460.182 549.929 460.353 549.804 460.478C549.678 460.604 549.508 460.675 549.33 460.675H549.331Z" fill="#E6E6E6"/>
<path id="fourth_bar" d="M294.254 458.333V125.607C294.254 121.34 296.899 117.881 300.162 117.881H326.524C329.786 117.881 332.431 121.34 332.431 125.607V459.2L294.254 458.333Z" fill="#0071F2"/>
<path id="Vector_5" d="M420.073 183.764C423.402 183.764 426.101 181.065 426.101 177.736C426.101 174.407 423.402 171.708 420.073 171.708C416.744 171.708 414.045 174.407 414.045 177.736C414.045 181.065 416.744 183.764 420.073 183.764Z" fill="#A0616A"/>
<path id="Vector_6" d="M487.051 181.085C490.38 181.085 493.079 178.386 493.079 175.057C493.079 171.728 490.38 169.029 487.051 169.029C483.721 169.029 481.023 171.728 481.023 175.057C481.023 178.386 483.721 181.085 487.051 181.085Z" fill="#A0616A"/>
<path id="Vector_7" d="M501.698 249.677C502.286 249.139 507.082 221.095 507.054 220.463C506.98 217.008 496.438 213.062 494.328 214.435C492.337 215.731 488.872 230.593 486.641 233.3L484.281 229.17H465.528L464.391 231.281C461.93 229.799 459.716 228.432 458.927 227.98C458.656 227.796 458.36 227.651 458.049 227.548C456.1 227.112 454.27 226.252 452.691 225.029C451.15 223.844 444.001 211.428 442.085 211.756C439.922 212.118 432.625 218.427 432.708 224.482C433.627 224.462 445.577 248.358 445.745 249.249C446.663 253.013 449.693 307.908 450.671 310.466C455.175 310.031 451.619 309.254 455.979 310.466C460.674 311.772 465.631 310.359 470.473 309.837C472.49 309.637 474.515 309.548 476.541 309.569C483.909 309.602 494.424 310.011 501.558 311.839C501.598 307.164 497.492 297.051 495.972 292.637C495.772 291.318 495.779 289.975 495.992 288.658C496.186 287.044 500.108 251.462 501.698 249.677Z" fill="#E6E6E6"/>
</g>
<defs>
<clipPath id="clip0_7_98">
<rect width="550" height="460.674" fill="white"/>
</clipPath>
</defs>
</svg>
