<svg width="71" height="33" viewBox="0 0 71 33" fill="none" xmlns="http://www.w3.org/2000/svg">
<path id="bang" d="M68.9776 7.13217L54.7502 0.626517C54.677 0.593271 54.6014 0.562468 54.5266 0.537511C53.7413 0.275532 52.908 0.481327 52.5926 1.04544C51.7489 0.658971 52.2465 1.66638 52.5926 1.04544L67.5868 8.50472L63.7503 8.58038L51.8326 8.2404C51.2672 8.2703 50.3125 8.09434 50.1331 8.50472C49.9548 8.91728 54.7502 12.3463 56.3836 14.7986L60.289 18.3189L45.156 13.629C45.156 13.629 44.6259 13.3464 44.2591 13.629C43.8935 13.9119 44.9998 15.1353 45.156 15.5797L50.7474 29.1356L36.973 18.0237C36.5431 17.7048 35.9804 17.5521 35.4645 17.6094C34.948 17.6682 34.5422 17.9325 34.3824 18.3189L30.961 29.8603L24.0939 16.5321C22.5899 16.5321 24.6493 15.7321 24.094 15.5797C23.5384 15.4268 23.6536 16.2586 23.27 16.5321L13.2081 23.9407L14.8312 8.58038C13.4412 8.61814 14.8756 8.18758 14.8312 8.58038C14.4596 8.25761 14.7263 8.50887 14.2246 8.50472L2.8793 8.58038L10.1902 1.33925C10.9247 1.86832 10.7362 0.836165 10.1902 1.33925C9.45872 0.809376 8.42021 0.789086 7.87715 1.29051L7.87661 1.29445L0.334082 8.2404C-0.0680079 8.61151 -0.103965 9.17916 0.243646 9.68036C0.59547 10.183 1.25199 10.514 1.91993 10.5219L12.4534 10.6414L10.848 24.5534C10.7851 25.1021 11.1747 25.6764 11.8221 25.9929C12.4715 26.309 13.2259 26.2892 13.7076 25.9438L23.27 19.1243L29.3565 31.4095C29.6242 31.9502 30.2658 32.3587 30.961 32.4276C31.6546 32.494 32.255 32.2097 32.4626 31.7146L36.8392 21.2145L49.8902 30.9024C50.4583 31.3239 51.2423 31.4475 51.8326 31.2107C52.4228 30.9741 52.6893 30.4278 52.4899 29.8603L47.813 16.5321L60.289 19.5867C60.9728 19.7539 61.6415 19.5782 61.971 19.1461C62.2984 18.7133 62.2188 18.1142 61.7662 17.6435L54.7437 10.302L68.7358 9.57564C69.4357 9.5377 69.9473 9.13667 70.0033 8.58038C70.0578 8.02156 69.6444 7.43929 68.9785 7.13269L68.9776 7.13217Z" fill="#0071F2"/>
</svg>
