<svg width="33" height="33" viewBox="0 0 33 33" fill="none" xmlns="http://www.w3.org/2000/svg">
<path d="M30.809 16.382C30.809 8.44314 24.3658 2 16.4269 2C8.48807 2 2.04492 8.44314 2.04492 16.382C2.04492 24.3209 8.48807 30.764 16.4269 30.764" stroke="white" stroke-width="2.71348" stroke-linecap="round" stroke-linejoin="round"/>
<path d="M10.6742 3.43822H12.1124C9.30792 11.8396 9.30792 20.9245 12.1124 29.3258H10.6742M20.7416 3.43822C22.1366 7.63777 22.8414 12.0099 22.8414 16.382" stroke="white" stroke-width="2.71348" stroke-linecap="round" stroke-linejoin="round"/>
<path d="M3.48315 22.1348V20.6966C7.68271 22.0917 12.0548 22.7964 16.427 22.7964M3.48315 12.0674C11.8845 9.26297 20.9694 9.26297 29.3708 12.0674M30.809 30.764L29.3708 29.3258M25.3438 29.9011C26.5644 29.9011 27.735 29.4162 28.5981 28.5531C29.4612 27.6901 29.9461 26.5195 29.9461 25.2989C29.9461 24.0783 29.4612 22.9077 28.5981 22.0446C27.735 21.1815 26.5644 20.6966 25.3438 20.6966C24.1232 20.6966 22.9526 21.1815 22.0895 22.0446C21.2265 22.9077 20.7416 24.0783 20.7416 25.2989C20.7416 26.5195 21.2265 27.6901 22.0895 28.5531C22.9526 29.4162 24.1232 29.9011 25.3438 29.9011Z" stroke="white" stroke-width="2.71348" stroke-linecap="round" stroke-linejoin="round"/>
</svg>
