<svg width="37" height="37" viewBox="0 0 37 37" fill="none" xmlns="http://www.w3.org/2000/svg">
<path d="M36.446 22.9776C33.9765 32.8876 23.9363 38.9191 14.0234 36.446C4.11048 33.9728 -1.91845 23.9371 0.555065 14.0262C3.02858 4.11531 13.0634 -1.91899 22.9741 0.555078C32.8848 3.02914 38.9191 13.0638 36.446 22.9776Z" fill="#F7931A"/>
<path d="M26.6592 15.8641C27.027 13.4023 25.1525 12.0788 22.5891 11.1959L23.4216 7.86121L21.391 7.35541L20.58 10.6024C20.0468 10.4696 19.4988 10.3434 18.9541 10.2198L19.7682 6.95136L17.7394 6.44556L16.9095 9.77897L12.8148 8.76477L12.2745 10.9338C12.2745 10.9338 13.7809 11.279 13.749 11.3004C14.5712 11.5058 14.7203 12.0497 14.6951 12.4811L12.417 21.6167C12.3164 21.8664 12.0614 22.2409 11.4868 22.0977C11.5071 22.1273 10.0112 21.7277 10.0112 21.7277L9.0033 24.0543L13.0919 25.0866L12.2516 28.4602L14.2793 28.966L15.1118 25.6287C15.6668 25.7789 16.2033 25.9177 16.7291 26.0483L15.8999 29.37L17.9301 29.8758L18.7704 26.5088C22.2324 27.1637 24.8358 26.8995 25.9301 23.7707C26.813 21.25 25.8868 19.7959 24.0653 18.8472C25.3917 18.54 26.3908 17.6679 26.6574 15.8654M22.0191 22.3687C21.3901 24.8894 17.147 23.5272 15.7702 23.185L16.885 18.7162C18.2611 19.0595 22.6737 19.7396 22.0199 22.3683M22.6489 15.8284C22.0765 18.1225 18.5434 16.957 17.3968 16.6709L18.4062 12.6173C19.5532 12.9037 23.2442 13.4369 22.6474 15.8288" fill="white"/>
</svg>
