<svg width="456" height="456" viewBox="0 0 456 456" fill="none" xmlns="http://www.w3.org/2000/svg">
<path d="M448.399 282.696C417.997 404.642 294.486 478.856 172.525 448.447C50.6152 418.045 -23.5989 294.526 6.81623 172.589C37.2046 50.6296 160.716 -23.5901 282.639 6.81161C404.591 37.2134 478.801 160.746 448.396 282.698L448.398 282.696H448.399Z" fill="#0071F2"/>
<path d="M327.979 195.199C332.51 164.906 309.447 148.623 277.911 137.76L288.141 96.7262L263.162 90.5021L253.203 130.456C246.636 128.818 239.893 127.275 233.19 125.745L243.222 85.5275L218.259 79.3034L208.022 120.324C202.588 119.087 197.251 117.864 192.073 116.576L192.102 116.447L157.655 107.845L151.011 134.524C151.011 134.524 169.543 138.772 169.152 139.033C179.267 141.558 181.096 148.254 180.793 153.561L169.139 200.308C169.835 200.485 170.739 200.741 171.736 201.142C170.902 200.935 170.016 200.709 169.096 200.489L152.761 265.975C151.525 269.048 148.387 273.66 141.315 271.909C141.566 272.272 123.16 267.378 123.16 267.378L110.759 295.971L143.265 304.074C149.312 305.591 155.238 307.177 161.073 308.669L150.737 350.174L175.687 356.398L185.923 315.334C192.739 317.184 199.354 318.891 205.829 320.5L195.628 361.371L220.607 367.595L230.943 326.168C273.537 334.229 305.564 330.979 319.045 292.453C329.907 261.435 318.504 243.543 296.095 231.876C312.417 228.112 324.71 217.377 327.988 195.203L327.98 195.197L327.979 195.199ZM270.909 275.227C263.189 306.245 210.964 289.477 194.032 285.273L207.749 230.286C224.68 234.513 278.976 242.878 270.91 275.227H270.909ZM278.634 194.75C271.592 222.964 228.124 208.63 214.024 205.115L226.46 155.245C240.56 158.76 285.969 165.32 278.636 194.75H278.634Z" fill="white"/>
</svg>
