<svg  viewBox="0 0 480 127" fill="none" xmlns="http://www.w3.org/2000/svg">
<path d="M20.7812 126.52L17.1534 112.55L6.86854 122.677L20.7812 126.52ZM453.518 7.42694C453.929 11.0858 457.229 13.7184 460.888 13.307C464.547 12.8957 467.179 9.59612 466.768 5.93727C466.357 2.27843 463.057 -0.35418 459.398 0.0571792C455.739 0.468538 453.107 3.76809 453.518 7.42694ZM13.84 117.694C9.24257 112.248 4.34377 104.763 3.58203 97.085C3.20499 93.2844 3.84082 89.437 6.04095 85.7241C8.24863 81.9985 12.0817 78.3245 18.236 74.9756C30.5796 68.259 52.0316 62.9737 87.5213 61.1319C122.978 59.2917 172.317 60.8931 240.335 67.8446L240.589 65.3576C172.503 58.3991 123.024 56.786 87.3917 58.6352C51.7925 60.4828 29.8848 65.7909 17.0411 72.7797C10.6019 76.2836 6.38447 80.2404 3.8902 84.4497C1.38838 88.6717 0.670777 93.0632 1.09424 97.3318C1.93351 105.792 7.25142 113.765 11.9297 119.307L13.84 117.694ZM240.335 67.8446C323.591 76.3535 379.033 76.8709 415.361 72.8339C433.526 70.8153 446.96 67.6532 456.722 63.754C466.48 59.8562 472.648 55.189 476.162 50.1109C483.276 39.8312 479.155 28.5228 473.676 20.1446C470.912 15.9174 467.732 12.317 465.251 9.77851C464.009 8.5073 462.937 7.49763 462.174 6.80378C461.792 6.45676 461.487 6.18846 461.276 6.00565C461.17 5.91425 461.088 5.84419 461.032 5.79633C461.004 5.7724 460.982 5.75402 460.967 5.74129C460.959 5.73493 460.953 5.72998 460.949 5.72646C460.947 5.72469 460.945 5.72312 460.944 5.72224C460.942 5.72103 460.941 5.72017 460.143 6.68211C459.345 7.64404 459.345 7.6439 459.345 7.64412C459.346 7.64467 459.346 7.64524 459.348 7.64633C459.35 7.64851 459.354 7.65211 459.36 7.65711C459.372 7.66711 459.391 7.6827 459.416 7.7038C459.466 7.74598 459.541 7.81015 459.639 7.89545C459.836 8.06605 460.126 8.32109 460.492 8.65381C461.225 9.31943 462.26 10.2948 463.463 11.5258C465.873 13.9918 468.936 17.4647 471.584 21.5128C476.928 29.6853 480.302 39.7356 474.107 48.6883C470.966 53.2264 465.279 57.6439 455.794 61.4324C446.314 65.2193 433.12 68.3451 415.085 70.3492C379.015 74.3575 323.776 73.8594 240.589 65.3576L240.335 67.8446Z" fill="#0071F2"/>
</svg>
