<svg width="728" height="608" viewBox="0 0 728 608" fill="none" xmlns="http://www.w3.org/2000/svg">
<path d="M182.287 596.971C182.287 596.971 18.4932 527.416 28.8137 453.161C39.1342 378.906 143.486 433.018 164.08 365.746C184.674 298.475 108.624 210.657 177.634 149.279C246.644 87.901 310.212 146.318 353.233 133.93C396.254 121.541 392.71 25.9873 490.727 24.2108C588.744 22.4343 669.992 82.6091 633.645 255.144C597.297 427.679 709.065 447.145 724.508 509.087C739.951 571.029 685.031 594.527 685.031 594.527L182.287 596.971Z" fill="#0071F2"/>
<path opacity="0.7" d="M182.287 596.971C182.287 596.971 18.4932 527.416 28.8137 453.161C39.1342 378.906 143.486 433.018 164.08 365.746C184.674 298.475 108.624 210.657 177.634 149.279C246.644 87.901 310.212 146.318 353.233 133.93C396.254 121.541 392.71 25.9873 490.727 24.2108C588.744 22.4343 669.992 82.6091 633.645 255.144C597.297 427.679 709.065 447.145 724.508 509.087C739.951 571.029 685.031 594.527 685.031 594.527L182.287 596.971Z" fill="white"/>
<path d="M255.414 523.581L255.282 523.524L184.965 494.386L184.872 494.217L108.633 358.866L108.699 358.64L157.529 195.035L157.745 194.932L351.297 103.297L351.532 103.41L546.766 196.746L599.976 359.797L599.75 360.032L464.465 504.782H464.249L255.414 523.581ZM185.746 493.503L255.583 522.462L463.939 503.663L598.716 359.505L545.864 197.498L351.297 104.444L158.45 195.815L109.789 358.725L185.746 493.503Z" fill="#0071F2"/>
<path d="M109 360L109.373 358.729L158.613 192L163 291.294V291.379L150.231 337.854L109 360ZM157.803 198.607L110.798 357.779L149.272 337.073L161.892 291.134L157.803 198.607Z" fill="#0071F2"/>
<path d="M185.67 495.627L184.871 494.208L108.473 358.565L149.708 336.608L193.622 440.001L185.67 495.627ZM109.996 359.016L185.041 492.243L192.504 440.124L149.163 338.178L109.996 359.016Z" fill="#0071F2"/>
<path d="M184.627 495.119L192.56 439.607L308.859 408.767L184.627 495.119ZM193.547 440.49L186.084 492.76L303.059 411.456L193.547 440.49Z" fill="#0071F2"/>
<path d="M161.777 292.751L157.378 194.236L207.543 233.817L161.777 292.751ZM158.591 196.605L162.745 289.658L205.982 233.977L158.591 196.605Z" fill="#0071F2"/>
<path d="M197.777 319.633L161.486 291.313L207.543 232.022L197.777 319.633ZM162.999 291.125L196.837 317.546L205.917 235.772L162.999 291.125Z" fill="#0071F2"/>
<path d="M196.668 319.577L206.246 233.337H206.763L346.494 239.409L196.668 319.577ZM207.233 234.484L198.002 317.603L342.405 240.359L207.233 234.484Z" fill="#0071F2"/>
<path d="M154.183 196.605L351.87 103.006L350.122 164.243L349.671 164.318L154.183 196.605ZM350.714 104.782L161.787 194.227L349.032 163.303L350.714 104.782Z" fill="#0071F2"/>
<path d="M511.81 318.609L511.011 318.233L342.762 239.72L510.071 200.712V201.398L511.81 318.609ZM346.137 240.077L510.682 316.87L508.99 202.113L346.137 240.077Z" fill="#0071F2"/>
<path d="M600.286 360.699L509.422 317.462L581.798 305.111L600.286 360.699ZM513.022 317.988L598.369 358.584L580.97 306.38L513.022 317.988Z" fill="#0071F2"/>
<path d="M463.14 506.145L510.87 316.945L600.267 359.468L599.75 360.022L463.14 506.145ZM511.612 318.524L465.264 502.253L598.425 359.825L511.612 318.524Z" fill="#0071F2"/>
<path d="M509.498 201.972L349.013 164.205L350.761 103.034L548.279 197.498L509.498 201.972ZM350.15 163.331L509.563 200.844L544.341 196.802L351.823 104.763L350.15 163.331Z" fill="#0071F2"/>
<path d="M599.252 370.145C605.819 370.145 611.142 364.822 611.142 358.255C611.142 351.688 605.819 346.365 599.252 346.365C592.685 346.365 587.362 351.688 587.362 358.255C587.362 364.822 592.685 370.145 599.252 370.145Z" fill="#2F2E41"/>
<path d="M599.252 368.406C604.859 368.406 609.404 363.861 609.404 358.255C609.404 352.649 604.859 348.104 599.252 348.104C593.646 348.104 589.101 352.649 589.101 358.255C589.101 363.861 593.646 368.406 599.252 368.406Z" fill="#0071F2"/>
<path d="M545.375 208.429C551.942 208.429 557.265 203.106 557.265 196.539C557.265 189.972 551.942 184.649 545.375 184.649C538.808 184.649 533.485 189.972 533.485 196.539C533.485 203.106 538.808 208.429 545.375 208.429Z" fill="#2F2E41"/>
<path d="M545.375 206.69C550.981 206.69 555.526 202.145 555.526 196.539C555.526 190.932 550.981 186.388 545.375 186.388C539.769 186.388 535.224 190.932 535.224 196.539C535.224 202.145 539.769 206.69 545.375 206.69Z" fill="#0071F2"/>
<path d="M157.134 208.401C163.701 208.401 169.024 203.077 169.024 196.511C169.024 189.944 163.701 184.62 157.134 184.62C150.567 184.62 145.244 189.944 145.244 196.511C145.244 203.077 150.567 208.401 157.134 208.401Z" fill="#2F2E41"/>
<path d="M157.134 206.662C162.74 206.662 167.285 202.117 167.285 196.511C167.285 190.904 162.74 186.359 157.134 186.359C151.528 186.359 146.983 190.904 146.983 196.511C146.983 202.117 151.528 206.662 157.134 206.662Z" fill="#0071F2"/>
<path d="M108.878 370.446C115.444 370.446 120.768 365.123 120.768 358.556C120.768 351.989 115.444 346.666 108.878 346.666C102.311 346.666 96.9874 351.989 96.9874 358.556C96.9874 365.123 102.311 370.446 108.878 370.446Z" fill="#2F2E41"/>
<path d="M108.878 368.707C114.484 368.707 119.029 364.162 119.029 358.556C119.029 352.949 114.484 348.405 108.878 348.405C103.271 348.405 98.7262 352.949 98.7262 358.556C98.7262 364.162 103.271 368.707 108.878 368.707Z" fill="#0071F2"/>
<path d="M328.278 219.032L350.883 233.328L372.624 219.032L350.883 172.11L328.278 219.032Z" fill="#0071F2"/>
<path d="M328.278 223.318L350.883 237.05L372.624 222.462L350.31 263.942L328.278 223.318Z" fill="#0071F2"/>
<g opacity="0.2">
<path d="M328.278 219.032L350.883 233.328L372.624 219.032L350.883 172.11L328.278 219.032Z" fill="white"/>
<path d="M328.278 223.318L350.883 237.05L372.624 222.462L350.31 263.942L328.278 223.318Z" fill="white"/>
</g>
<path d="M463.553 271.753V277.392C463.548 277.468 463.517 277.539 463.465 277.595C463.413 277.65 463.344 277.686 463.268 277.696C463.193 277.706 463.117 277.689 463.052 277.649C462.988 277.609 462.939 277.549 462.914 277.477L461.598 271.912C461.337 270.826 460.726 269.855 459.86 269.149L450.047 261.16V290.551C450.047 295.157 444.623 298.889 437.931 298.889C431.238 298.889 425.815 295.129 425.815 290.551C425.815 285.974 431.248 282.214 437.931 282.214C440.313 282.19 442.671 282.7 444.83 283.709V252.954C444.832 252.16 445.149 251.4 445.711 250.84C446.274 250.28 447.035 249.965 447.828 249.965C448.221 249.962 448.611 250.039 448.974 250.189C449.337 250.339 449.667 250.56 449.943 250.839C450.226 251.113 450.45 251.442 450.602 251.806C450.754 252.169 450.831 252.56 450.827 252.954V254.947C450.829 255.595 451.074 256.218 451.513 256.695L462.247 268.294C463.098 269.244 463.564 270.477 463.553 271.753Z" fill="#2F2E41"/>
<path d="M228.964 293.211H174.824V324.173H228.964V293.211Z" fill="#2F2E41"/>
<path d="M228.964 286.199H174.636V293.211H228.964V286.199Z" fill="#2F2E41"/>
<path d="M174.636 293.211H177.164L181.648 286.199H174.636V293.211Z" fill="#0071F2"/>
<path d="M187.898 293.249L192.156 286.199H200.728L196.254 293.409L187.898 293.249Z" fill="#0071F2"/>
<path d="M207.073 293.155L211.34 286.152H219.912L215.429 293.305L207.073 293.155Z" fill="#0071F2"/>
<path opacity="0.2" d="M228.955 293.211H174.824V295.082H228.955V293.211Z" fill="black"/>
<path d="M198.078 302.131V316.569L208.887 309.172L198.078 302.131Z" fill="#0071F2"/>
<path d="M514.902 356.939V386.425C514.903 386.627 514.865 386.827 514.788 387.014C514.712 387.201 514.599 387.371 514.457 387.514C514.314 387.658 514.145 387.771 513.959 387.849C513.772 387.927 513.572 387.966 513.37 387.966H483.01C482.808 387.966 482.608 387.927 482.422 387.849C482.235 387.771 482.066 387.658 481.923 387.514C481.781 387.371 481.668 387.201 481.592 387.014C481.515 386.827 481.477 386.627 481.478 386.425V356.939C481.478 356.738 481.518 356.54 481.595 356.354C481.672 356.169 481.785 356.001 481.927 355.859C482.07 355.718 482.239 355.606 482.424 355.53C482.61 355.454 482.809 355.415 483.01 355.416H513.332C513.536 355.41 513.739 355.445 513.93 355.519C514.12 355.592 514.293 355.703 514.44 355.845C514.586 355.988 514.702 356.158 514.782 356.345C514.861 356.533 514.902 356.735 514.902 356.939Z" fill="#2F2E41"/>
<path d="M514.902 385.231V386.425C514.904 386.628 514.865 386.829 514.787 387.016C514.71 387.204 514.597 387.374 514.454 387.518C514.31 387.661 514.14 387.775 513.952 387.852C513.765 387.929 513.564 387.968 513.361 387.966H498.491L499.431 376.537L502.505 373.238C502.633 373.093 502.791 372.978 502.968 372.898C503.144 372.819 503.336 372.778 503.529 372.778C503.723 372.778 503.914 372.819 504.09 372.898C504.267 372.978 504.425 373.093 504.554 373.238L514.902 385.231Z" fill="#0071F2"/>
<path opacity="0.2" d="M514.902 385.231V386.425C514.904 386.628 514.865 386.829 514.787 387.016C514.71 387.204 514.597 387.374 514.454 387.518C514.31 387.661 514.14 387.775 513.952 387.852C513.765 387.929 513.564 387.968 513.361 387.966H498.491L499.431 376.537L502.505 373.238C502.633 373.093 502.791 372.978 502.968 372.898C503.144 372.819 503.336 372.778 503.529 372.778C503.723 372.778 503.914 372.819 504.09 372.898C504.267 372.978 504.425 373.093 504.554 373.238L514.902 385.231Z" fill="white"/>
<path d="M507.514 366.113C508.651 366.113 509.573 365.191 509.573 364.054C509.573 362.918 508.651 361.996 507.514 361.996C506.377 361.996 505.456 362.918 505.456 364.054C505.456 365.191 506.377 366.113 507.514 366.113Z" fill="#0071F2"/>
<path d="M511.368 387.976H483.01C482.604 387.976 482.214 387.814 481.927 387.527C481.64 387.24 481.478 386.85 481.478 386.444V378.906L490.877 370.061C491.089 369.856 491.373 369.742 491.667 369.742C491.962 369.742 492.245 369.856 492.457 370.061L511.368 387.976Z" fill="#0071F2"/>
<path d="M445.713 160.577V190.072C445.716 190.274 445.678 190.474 445.603 190.661C445.528 190.848 445.416 191.018 445.274 191.161C445.133 191.304 444.964 191.418 444.778 191.496C444.592 191.574 444.392 191.614 444.191 191.614H413.859C413.657 191.614 413.458 191.574 413.272 191.496C413.086 191.418 412.917 191.304 412.776 191.161C412.634 191.018 412.522 190.848 412.447 190.661C412.371 190.474 412.334 190.274 412.336 190.072V160.577C412.336 160.173 412.497 159.786 412.782 159.5C413.068 159.215 413.455 159.054 413.859 159.054H444.191C444.391 159.053 444.59 159.091 444.775 159.168C444.96 159.244 445.129 159.356 445.27 159.497C445.412 159.639 445.524 159.807 445.6 159.993C445.676 160.178 445.715 160.377 445.713 160.577Z" fill="#2F2E41"/>
<path d="M445.713 188.869V190.072C445.715 190.274 445.676 190.474 445.6 190.661C445.523 190.848 445.41 191.018 445.268 191.162C445.126 191.305 444.956 191.419 444.77 191.496C444.583 191.574 444.383 191.614 444.181 191.614H429.368L430.308 180.184L433.382 176.885C433.51 176.74 433.668 176.625 433.845 176.546C434.021 176.466 434.212 176.425 434.406 176.425C434.6 176.425 434.791 176.466 434.967 176.546C435.144 176.625 435.302 176.74 435.431 176.885L445.713 188.869Z" fill="#0071F2"/>
<path opacity="0.2" d="M445.713 188.869V190.072C445.715 190.274 445.676 190.474 445.6 190.661C445.523 190.848 445.41 191.018 445.268 191.162C445.126 191.305 444.956 191.419 444.77 191.496C444.583 191.574 444.383 191.614 444.181 191.614H429.368L430.308 180.184L433.382 176.885C433.51 176.74 433.668 176.625 433.845 176.546C434.021 176.466 434.212 176.425 434.406 176.425C434.6 176.425 434.791 176.466 434.967 176.546C435.144 176.625 435.302 176.74 435.431 176.885L445.713 188.869Z" fill="white"/>
<path d="M438.363 169.76C439.5 169.76 440.422 168.838 440.422 167.702C440.422 166.565 439.5 165.643 438.363 165.643C437.226 165.643 436.305 166.565 436.305 167.702C436.305 168.838 437.226 169.76 438.363 169.76Z" fill="#0071F2"/>
<path d="M442.217 191.614H413.859C413.456 191.611 413.07 191.45 412.785 191.165C412.5 190.88 412.339 190.494 412.336 190.091V182.506L421.736 173.661C421.951 173.46 422.235 173.348 422.53 173.348C422.825 173.348 423.108 173.46 423.324 173.661L442.217 191.614Z" fill="#0071F2"/>
<path d="M580.989 311.813C584.431 311.813 587.221 309.023 587.221 305.581C587.221 302.139 584.431 299.349 580.989 299.349C577.548 299.349 574.757 302.139 574.757 305.581C574.757 309.023 577.548 311.813 580.989 311.813Z" fill="#2F2E41"/>
<path d="M205.785 240.312C209.227 240.312 212.017 237.522 212.017 234.08C212.017 230.638 209.227 227.848 205.785 227.848C202.343 227.848 199.553 230.638 199.553 234.08C199.553 237.522 202.343 240.312 205.785 240.312Z" fill="#2F2E41"/>
<path d="M149.473 345.34C152.915 345.34 155.705 342.55 155.705 339.109C155.705 335.667 152.915 332.877 149.473 332.877C146.032 332.877 143.242 335.667 143.242 339.109C143.242 342.55 146.032 345.34 149.473 345.34Z" fill="#2F2E41"/>
<path d="M186.808 497.507C190.249 497.507 193.04 494.717 193.04 491.275C193.04 487.833 190.249 485.043 186.808 485.043C183.366 485.043 180.576 487.833 180.576 491.275C180.576 494.717 183.366 497.507 186.808 497.507Z" fill="#2F2E41"/>
<path d="M349.652 170.907C353.094 170.907 355.884 168.117 355.884 164.675C355.884 161.233 353.094 158.443 349.652 158.443C346.21 158.443 343.42 161.233 343.42 164.675C343.42 168.117 346.21 170.907 349.652 170.907Z" fill="#2F2E41"/>
<path d="M510.992 324.389C514.434 324.389 517.224 321.599 517.224 318.157C517.224 314.716 514.434 311.926 510.992 311.926C507.55 311.926 504.76 314.716 504.76 318.157C504.76 321.599 507.55 324.389 510.992 324.389Z" fill="#2F2E41"/>
<path d="M350.582 116.024C357.149 116.024 362.473 110.7 362.473 104.134C362.473 97.5669 357.149 92.2435 350.582 92.2435C344.016 92.2435 338.692 97.5669 338.692 104.134C338.692 110.7 344.016 116.024 350.582 116.024Z" fill="#2F2E41"/>
<path d="M200.117 387.873L307.035 386.5C308.083 386.488 309.122 386.683 310.094 387.075C311.066 387.467 311.95 388.048 312.695 388.784C313.441 389.52 314.033 390.397 314.438 391.363C314.843 392.33 315.052 393.367 315.053 394.414V572.288H231.163L208.99 471.019C208.99 471.019 192.729 407.104 200.117 387.873Z" fill="#2F2E41"/>
<path d="M396.63 492.13C396.63 492.13 423.728 522.716 455.009 521.118L465.828 493.286C465.828 493.286 439.51 482.082 423.305 465.84L414.028 461.62L396.63 484.423V492.13Z" fill="#F7A48B"/>
<path d="M312.816 410.563C307.146 412.536 301.823 415.39 297.044 419.022C294.422 420.995 291.646 422.755 288.744 424.286C279.41 429.145 266.364 434.785 260.997 437.059C260.259 437.373 259.628 437.897 259.184 438.565C258.74 439.233 258.501 440.017 258.497 440.819C258.252 456.977 257.707 541.656 272.286 572.063L374.541 573.134L384.082 544.532L380.078 535.612L397.777 426.081C397.804 425.852 397.746 425.622 397.614 425.433C397.483 425.244 397.286 425.11 397.062 425.056C381.202 422.01 365.827 416.834 351.353 409.67L312.816 410.563Z" fill="#0071F2"/>
<path d="M317.962 369.449C317.962 369.449 317.283 398.203 312.996 405.248C312.996 405.248 301.265 408.781 306.221 420.718C306.221 420.718 314.108 436.573 336.826 437.921C343.307 438.464 349.735 436.198 354.945 431.533C358.008 428.657 360.665 424.738 360.985 419.687C361.08 417.494 360.723 415.307 359.945 413.319C359.168 411.332 357.994 409.605 356.528 408.294C354.959 406.792 353.31 405.415 351.591 404.172L352.722 389.789L328.119 351.544L315.474 351L317.962 369.449Z" fill="#F9B499"/>
<path d="M388.64 482.712C388.64 482.712 390.191 489.921 393.538 494.819C393.538 494.819 412.609 484.479 423.954 464.158C423.954 464.158 407.42 446.102 397.777 426.006L388.64 482.712Z" fill="#0071F2"/>
<path opacity="0.2" d="M388.64 482.712C388.64 482.712 390.191 489.921 393.538 494.819C393.538 494.819 412.609 484.479 423.954 464.158C423.954 464.158 407.42 446.102 397.777 426.006L388.64 482.712Z" fill="black"/>
<path d="M264.813 507.602C264.813 507.602 275.538 541.007 295.455 571.959L371.769 571.649C371.769 571.649 406.067 573.134 413.68 563.19C413.68 563.19 418.521 560.191 417.835 543.817C417.835 543.817 427.328 553.781 426.294 545.462C426.294 545.462 433.156 551.704 429.622 534.24C429.622 534.24 434.406 546.299 437.31 544.635C437.31 544.635 441.07 545.462 436.897 533.826C436.897 533.826 431.079 518.646 423.381 518.232L427.544 515.948L432.912 518.204C433.644 518.511 434.309 518.96 434.866 519.527C435.422 520.093 435.86 520.765 436.154 521.503C437.273 524.323 439.782 528.797 444.379 527.801C444.379 527.801 446.456 526.964 443.345 523.844C441.759 521.252 440.434 518.509 439.388 515.657C438.973 514.377 438.147 513.27 437.038 512.508L432.94 509.632C431.772 508.808 430.427 508.27 429.013 508.061C427.599 507.852 426.156 507.978 424.8 508.429C417.656 510.816 404.375 515.591 404.676 518.026C404.676 518.026 404.676 521.973 402.796 523.223C402.091 523.719 401.526 524.389 401.159 525.169C400.791 525.948 400.633 526.81 400.7 527.669C400.746 528.786 400.479 529.893 399.929 530.865C398.679 532.989 396.639 537.689 396.348 546.092C377.521 548.873 358.379 548.762 339.585 545.763C337.825 545.463 336.084 545.065 334.368 544.569C330.242 543.394 321.557 541.101 316.312 541.101C316.312 541.101 304.883 500.562 300.098 496.614C300.098 496.642 272.333 505.957 264.813 507.602Z" fill="#F9B499"/>
<path d="M407.684 567.372C406.587 567.701 405.442 567.835 404.3 567.767C403.139 567.712 401.996 567.464 400.916 567.034C399.824 566.596 398.841 565.922 398.04 565.06C397.253 564.208 396.683 563.18 396.376 562.062C396.989 562.974 397.719 563.802 398.547 564.524C399.359 565.219 400.28 565.774 401.273 566.169C403.324 566.938 405.493 567.345 407.684 567.372Z" fill="#F7A48B"/>
<path d="M404.93 536.232C407.576 536.239 410.172 536.953 412.449 538.3C413.019 538.635 413.571 538.999 414.103 539.39C414.623 539.793 415.116 540.229 415.579 540.697C416.505 541.623 417.285 542.685 417.891 543.846C417.005 542.922 416.063 542.052 415.072 541.242C414.105 540.441 413.066 539.73 411.97 539.118C410.885 538.479 409.754 537.923 408.586 537.454C407.393 536.974 406.172 536.566 404.93 536.232Z" fill="#F7A48B"/>
<path d="M409.065 528.619C410.28 528.747 411.476 529.018 412.628 529.427C413.79 529.822 414.905 530.342 415.955 530.978C417.017 531.617 417.969 532.424 418.775 533.365C419.596 534.307 420.136 535.46 420.335 536.693C419.811 535.635 419.101 534.68 418.239 533.873C417.382 533.071 416.436 532.371 415.419 531.786C414.413 531.165 413.371 530.603 412.299 530.104C411.274 529.606 410.184 529.089 409.065 528.619Z" fill="#F7A48B"/>
<path d="M411.603 521.466C414.51 521.423 417.393 521.997 420.063 523.148C421.413 523.724 422.663 524.511 423.766 525.479C424.86 526.454 425.685 527.694 426.163 529.079C425.393 527.907 424.423 526.879 423.296 526.043C422.174 525.23 420.963 524.545 419.687 524.004C418.404 523.445 417.089 522.964 415.748 522.566C414.329 522.171 413.004 521.776 411.603 521.466Z" fill="#F7A48B"/>
<path d="M412.759 515.704C413.693 515.573 414.639 515.547 415.579 515.629C416.502 515.702 417.419 515.837 418.324 516.033C420.157 516.409 421.89 517.168 423.409 518.261L420.749 517.574C419.875 517.368 419 517.142 418.117 516.954C416.322 516.54 414.555 516.193 412.759 515.704Z" fill="#F7A48B"/>
<path opacity="0.75" d="M632.526 436.317L640.515 412.057C640.897 410.898 640.999 409.665 640.812 408.459C640.625 407.253 640.155 406.108 639.441 405.119C638.726 404.129 637.788 403.323 636.702 402.766C635.616 402.209 634.414 401.918 633.193 401.915L473.16 401.558C469.734 401.553 466.391 402.604 463.585 404.569C460.779 406.533 458.648 409.316 457.481 412.536L407.571 550.294C407.172 551.394 407.044 552.574 407.199 553.735C407.353 554.895 407.784 556.001 408.457 556.959C409.129 557.917 410.022 558.699 411.061 559.239C412.099 559.779 413.253 560.06 414.423 560.06H450.986L508.407 453.706L632.526 436.317Z" fill="#E6E7E8"/>
<path d="M515.842 567.833L415.739 566.893C413.45 567.009 411.168 566.565 409.09 565.6C407.011 564.635 405.199 563.179 403.811 561.356C402.422 559.533 401.499 557.399 401.12 555.139C400.742 552.879 400.92 550.561 401.64 548.386L450.996 409.359C452.412 405.374 455.025 401.924 458.478 399.481C461.931 397.038 466.054 395.721 470.283 395.712L633.062 395.326C635.367 395.322 637.641 395.866 639.694 396.913C641.748 397.96 643.524 399.48 644.874 401.349C646.225 403.217 647.112 405.38 647.462 407.658C647.812 409.937 647.615 412.266 646.888 414.454L639.209 437.492L515.842 567.833Z" stroke="#E6E7E8" stroke-width="0.939937" stroke-miterlimit="10"/>
<path opacity="0.75" d="M440.356 482.505L467.623 410.14L489.646 410.487L462.726 482.863L440.356 482.505Z" fill="#E6E7E8"/>
<path opacity="0.75" d="M430.909 509.782L438.955 487.055L460.63 488.098L452.942 510.13L430.909 509.782Z" fill="#E6E7E8"/>
<path opacity="0.75" d="M444.141 545.758C451.1 537.977 452.122 527.537 446.422 522.439C440.723 517.341 430.461 519.517 423.501 527.298C416.542 535.079 415.52 545.519 421.22 550.617C426.919 555.714 437.181 553.539 444.141 545.758Z" fill="#E6E7E8"/>
<path d="M203.069 400.289C203.886 385.363 200.117 387.872 200.117 387.872C191.573 386.444 193.923 407.611 193.923 407.611C193.923 407.611 192.09 437.689 202.552 469.027C202.552 469.027 216.397 512.922 215.871 529.389L221.886 573.031L234.425 572.533L223.146 510.337L213.624 468.98C212.947 466.047 212.167 463.161 211.246 460.304C208.483 451.459 201.612 426.955 203.069 400.289Z" fill="#2F2E41"/>
<path opacity="0.2" d="M203.069 400.289C203.886 385.363 200.117 387.872 200.117 387.872C191.573 386.444 193.923 407.611 193.923 407.611C193.923 407.611 192.09 437.689 202.552 469.027C202.552 469.027 216.397 512.922 215.871 529.389L221.886 573.031L234.425 572.533L223.146 510.337L213.624 468.98C212.947 466.047 212.167 463.161 211.246 460.304C208.483 451.459 201.612 426.955 203.069 400.289Z" fill="black"/>
<path d="M688.039 576.668H173.602V607.771H688.039V576.668Z" fill="#BCBEC0"/>
<path d="M349.275 406.634L350.215 391.679L325.541 369.845C325.541 369.845 322.956 389.969 349.275 406.634Z" fill="#F7A48B"/>
<path d="M358.166 398.005C340.486 400.374 323.201 380.353 319.629 353.264C316.057 326.175 327.365 302.31 345.007 299.941C362.65 297.573 379.945 317.594 383.545 344.673C383.545 344.72 383.545 344.767 383.545 344.805C383.667 345.839 383.78 346.873 383.864 347.906C386.28 373.633 375.132 395.721 358.166 398.005Z" fill="#F9B499"/>
<path d="M384.428 313.336C384.428 313.336 410.69 330.142 385.481 329.512C385.481 329.512 387.84 339.494 383.009 341.177C383.009 341.177 382.191 334.597 377.285 323.412L379.165 315.225L384.428 313.336Z" fill="#2F2E41"/>
<path opacity="0.2" d="M384.428 313.336C384.428 313.336 410.69 330.142 385.481 329.512C385.481 329.512 387.84 339.494 383.009 341.177C383.009 341.177 382.191 334.672 377.285 323.412L379.165 315.225L384.428 313.336Z" fill="black"/>
<path d="M319.516 377.59C319.516 377.59 315.691 373.99 317.317 366.104L320.24 350.566C320.24 350.566 326.096 357.099 328.342 361.846C328.342 361.846 333.521 361.846 328.568 349.467C328.568 349.467 324.517 342.709 326.773 339.127C329.386 334.71 330.639 329.619 330.372 324.493L302.005 323.553C302.005 323.553 300.247 336.712 309.713 370.55C310.13 372.14 310.876 373.626 311.903 374.911C313.378 376.744 315.888 378.586 319.516 377.59Z" fill="#2F2E41"/>
<path opacity="0.2" d="M319.516 377.59C319.516 377.59 315.691 373.99 317.317 366.104L320.24 350.566C320.24 350.566 326.096 357.099 328.342 361.846C328.342 361.846 333.521 361.846 328.568 349.467C328.568 349.467 324.517 342.709 326.773 339.127C329.386 334.71 330.639 329.619 330.372 324.493L302.005 323.553C302.005 323.553 300.247 336.712 309.713 370.55C310.13 372.14 310.876 373.626 311.903 374.911C313.378 376.744 315.888 378.586 319.516 377.59Z" fill="black"/>
<path d="M338.606 346.628L318.351 349.025L308.773 350.905C308.773 350.905 301.704 353.584 302.729 346.403C302.842 345.594 313.858 345.087 320.033 344.786C326.613 344.466 332.722 344.457 338.418 344.645C338.484 345.275 338.55 345.951 338.606 346.628Z" fill="#0071F2"/>
<path d="M391.985 346.957L383.911 347.897C383.827 346.863 383.714 345.829 383.592 344.795C386.412 344.795 389.166 344.795 391.816 344.908C391.854 345.604 391.92 346.271 391.985 346.957Z" fill="#0071F2"/>
<path opacity="0.4" d="M362.678 345.923C362.68 348.318 361.971 350.66 360.642 352.652C359.313 354.644 357.423 356.197 355.211 357.115C352.999 358.032 350.565 358.274 348.216 357.808C345.867 357.341 343.709 356.189 342.014 354.496C340.32 352.804 339.167 350.647 338.699 348.298C338.231 345.949 338.47 343.515 339.386 341.302C340.302 339.089 341.854 337.198 343.845 335.867C345.836 334.536 348.177 333.826 350.572 333.826H350.628C353.828 333.839 356.893 335.119 359.152 337.386C361.41 339.653 362.678 342.723 362.678 345.923Z" fill="white"/>
<mask id="mask0_26_45" style="mask-type:luminance" maskUnits="userSpaceOnUse" x="338" y="333" width="25" height="26">
<path d="M362.678 345.923C362.68 348.318 361.971 350.66 360.642 352.652C359.313 354.644 357.423 356.197 355.211 357.115C352.999 358.032 350.565 358.274 348.216 357.808C345.867 357.341 343.709 356.189 342.014 354.496C340.32 352.804 339.167 350.647 338.699 348.298C338.231 345.949 338.47 343.515 339.386 341.302C340.302 339.089 341.854 337.198 343.845 335.867C345.836 334.536 348.177 333.826 350.572 333.826H350.628C353.828 333.839 356.893 335.119 359.152 337.386C361.41 339.653 362.678 342.723 362.678 345.923Z" fill="white"/>
</mask>
<g mask="url(#mask0_26_45)">
<path opacity="0.4" d="M350.628 333.826L339.988 351.798C338.968 349.955 338.446 347.878 338.473 345.772C338.501 343.666 339.078 341.604 340.147 339.789C341.216 337.974 342.74 336.47 344.568 335.424C346.396 334.378 348.466 333.827 350.572 333.826H350.628Z" fill="white"/>
</g>
<path d="M350.572 358.5C348.084 358.5 345.653 357.762 343.585 356.38C341.517 354.998 339.905 353.034 338.953 350.736C338.001 348.438 337.752 345.909 338.237 343.47C338.722 341.03 339.92 338.789 341.679 337.03C343.438 335.272 345.679 334.074 348.118 333.589C350.558 333.103 353.086 333.352 355.385 334.304C357.683 335.256 359.647 336.868 361.029 338.936C362.411 341.004 363.148 343.436 363.148 345.923C363.141 349.256 361.813 352.451 359.456 354.808C357.099 357.165 353.905 358.492 350.572 358.5ZM350.628 334.296C348.324 334.285 346.068 334.958 344.147 336.23C342.226 337.503 340.726 339.317 339.836 341.443C338.947 343.568 338.709 345.91 339.153 348.171C339.596 350.433 340.701 352.511 342.327 354.144C343.953 355.777 346.027 356.89 348.287 357.342C350.546 357.795 352.889 357.566 355.018 356.686C357.148 355.805 358.968 354.313 360.248 352.396C361.528 350.48 362.21 348.228 362.208 345.923C362.201 342.85 360.98 339.904 358.811 337.726C356.642 335.549 353.701 334.316 350.628 334.296Z" fill="#0071F2"/>
<path opacity="0.35" d="M392.173 344.852C392.181 347.254 391.475 349.605 390.145 351.606C388.815 353.607 386.92 355.169 384.702 356.092C382.484 357.015 380.041 357.259 377.684 356.793C375.327 356.327 373.161 355.171 371.462 353.473C369.762 351.775 368.605 349.61 368.137 347.253C367.669 344.896 367.911 342.454 368.832 340.235C369.754 338.016 371.314 336.12 373.314 334.789C375.314 333.457 377.664 332.749 380.067 332.755C383.276 332.755 386.354 334.029 388.624 336.297C390.894 338.566 392.171 341.642 392.173 344.852Z" fill="white"/>
<mask id="mask1_26_45" style="mask-type:luminance" maskUnits="userSpaceOnUse" x="367" y="332" width="26" height="26">
<path d="M392.173 344.852C392.181 347.254 391.475 349.605 390.145 351.606C388.815 353.607 386.92 355.169 384.702 356.092C382.484 357.015 380.041 357.259 377.684 356.793C375.327 356.327 373.161 355.171 371.462 353.473C369.762 351.775 368.605 349.61 368.137 347.253C367.669 344.896 367.911 342.454 368.832 340.235C369.754 338.016 371.314 336.12 373.314 334.789C375.314 333.457 377.664 332.749 380.067 332.755C383.276 332.755 386.354 334.029 388.624 336.297C390.894 338.566 392.171 341.642 392.173 344.852Z" fill="white"/>
</mask>
<g mask="url(#mask1_26_45)">
<path opacity="0.4" d="M377.473 332.99L369.822 351.187C368.805 349.544 368.196 347.682 368.046 345.756C367.895 343.83 368.207 341.897 368.956 340.116C369.705 338.335 370.868 336.759 372.35 335.519C373.831 334.28 375.588 333.412 377.473 332.99Z" fill="white"/>
</g>
<path d="M380.067 357.381C376.977 357.371 373.998 356.224 371.7 354.158C369.402 352.092 367.945 349.253 367.607 346.181C367.268 343.11 368.073 340.021 369.867 337.505C371.66 334.988 374.318 333.221 377.332 332.539C379.059 332.148 380.85 332.126 382.586 332.475C384.322 332.824 385.965 333.536 387.407 334.564C388.85 335.592 390.058 336.913 390.955 338.441C391.851 339.968 392.414 341.668 392.608 343.428C392.802 345.189 392.622 346.97 392.079 348.656C391.537 350.342 390.645 351.895 389.461 353.212C388.277 354.529 386.828 355.581 385.209 356.3C383.59 357.018 381.838 357.387 380.067 357.381ZM380.067 333.178C379.217 333.178 378.369 333.269 377.539 333.45C374.943 334.016 372.621 335.458 370.964 337.535C369.307 339.611 368.416 342.195 368.44 344.852C368.438 347.154 369.119 349.405 370.397 351.32C371.675 353.235 373.492 354.728 375.619 355.61C377.746 356.492 380.086 356.723 382.344 356.274C384.602 355.826 386.677 354.717 388.305 353.089C389.932 351.461 391.041 349.387 391.49 347.129C391.938 344.871 391.707 342.53 390.825 340.404C389.943 338.277 388.45 336.46 386.535 335.182C384.62 333.904 382.369 333.223 380.067 333.225V333.178Z" fill="#0071F2"/>
<path d="M368.13 344.579H362.518V345.519H368.13V344.579Z" fill="#0071F2"/>
<path d="M326.251 366.45C329.675 363.569 328.984 357.112 324.707 352.027C320.429 346.942 314.186 345.155 310.761 348.036C307.337 350.916 308.029 357.374 312.306 362.458C316.583 367.543 322.827 369.33 326.251 366.45Z" fill="#F9B499"/>
<path d="M303.396 311.756C303.396 311.756 296.93 323.976 307.476 329.728C308.669 329.972 313.463 331.89 326.885 326.372C326.885 326.372 320.654 333.563 336.228 329.728C336.228 329.728 318.971 338.357 325.889 341.233C325.889 341.233 331.397 344.109 360.394 324.455C360.394 324.455 358.514 334.042 363.74 330.931C363.74 330.931 370.696 322.547 373.328 316.315C373.328 316.315 370.931 333.328 379.324 321.344C379.324 321.344 399.448 294.744 382.915 295.026C382.915 295.026 330.683 295.026 306.959 306.305C306.959 306.305 304.665 299.65 299.505 299.518C299.317 299.508 299.129 299.535 298.952 299.598C298.775 299.661 298.612 299.757 298.472 299.883C298.332 300.009 298.219 300.161 298.138 300.331C298.057 300.5 298.011 300.684 298.001 300.872C297.945 302.244 298.537 304.735 301.996 308.476C301.996 308.476 295.849 306.211 295.886 309.51C295.924 309.454 295.416 311.296 303.396 311.756Z" fill="#2F2E41"/>
<path opacity="0.2" d="M340.533 329.089C342.797 328.041 344.911 326.698 346.821 325.094C348.724 323.516 350.44 321.725 351.935 319.755C352.32 319.276 352.64 318.75 353.006 318.251L353.533 317.49L353.974 316.654L354.914 315.056C355.177 314.492 355.45 313.937 355.732 313.383L356.146 312.546L356.484 311.681L357.17 309.942C357.621 308.777 357.931 307.564 358.373 306.371C358.176 307.611 357.969 308.861 357.687 310.13L357.142 311.954L356.869 312.894L356.512 313.777C355.594 316.166 354.348 318.416 352.809 320.46C351.256 322.499 349.41 324.295 347.329 325.79C346.293 326.53 345.207 327.196 344.077 327.782C342.944 328.339 341.756 328.777 340.533 329.089Z" fill="black"/>
<path opacity="0.2" d="M358.589 323.412C360.057 322.299 361.38 321.008 362.528 319.567C363.672 318.163 364.658 316.638 365.47 315.018C365.686 314.623 365.846 314.2 366.043 313.787C366.24 313.373 366.4 312.96 366.551 312.527L367.021 311.249L367.387 309.933C367.679 309.068 367.791 308.157 368.008 307.254C368.224 306.352 368.28 305.431 368.468 304.51C368.525 305.45 368.562 306.389 368.553 307.329C368.504 308.275 368.397 309.217 368.233 310.149C367.901 312.023 367.303 313.84 366.457 315.544C365.602 317.244 364.492 318.804 363.167 320.169C361.868 321.539 360.313 322.641 358.589 323.412Z" fill="black"/>
<path opacity="0.2" d="M374.136 313.542C374.343 312.367 374.521 311.221 374.69 310.074C374.86 308.927 374.991 307.79 375.076 306.643C375.16 305.497 375.254 304.35 375.292 303.194C375.33 302.038 375.339 300.872 375.395 299.678C376.155 301.949 376.424 304.355 376.185 306.737C376.08 307.928 375.86 309.105 375.527 310.253C375.221 311.409 374.752 312.517 374.136 313.542Z" fill="black"/>
<path d="M258.299 510.017C258.299 510.017 294.901 498.945 303.51 495.251C303.51 495.251 293.359 424.821 257.068 438.967C257.068 438.967 248.768 439.588 251.842 451.581C251.833 451.581 258.6 503.25 258.299 510.017Z" fill="#0071F2"/>
<path opacity="0.2" d="M258.299 510.017C258.299 510.017 294.901 498.945 303.51 495.251C303.51 495.251 293.359 424.821 257.068 438.967C257.068 438.967 248.768 439.588 251.842 451.581C251.833 451.581 258.6 503.25 258.299 510.017Z" fill="black"/>
<path d="M446.888 565.53C446.888 565.53 439.876 567.485 440.976 558.471L481.704 444.203C481.704 444.203 484.166 429.164 498.378 429.718L635.327 429.991C635.327 429.991 644.181 429.568 640.967 437.981L446.888 565.53Z" fill="#0071F2"/>
<path d="M513.549 565.53H446.888C446.331 565.529 445.782 565.395 445.287 565.14C444.792 564.884 444.365 564.513 444.042 564.059C443.719 563.604 443.51 563.079 443.431 562.528C443.352 561.976 443.406 561.413 443.589 560.887L485.454 441.27C486.394 438.584 488.147 436.256 490.47 434.611C492.792 432.965 495.569 432.083 498.416 432.087L636.991 432.275C637.674 432.277 638.346 432.442 638.951 432.758C639.557 433.074 640.077 433.531 640.469 434.091C640.861 434.65 641.112 435.296 641.202 435.973C641.292 436.65 641.218 437.338 640.985 437.981L596.545 560.953C596.192 561.935 595.547 562.786 594.697 563.392C593.847 563.998 592.833 564.331 591.789 564.346L513.549 565.53Z" fill="#0071F2"/>
<path opacity="0.2" d="M513.549 565.53H446.888C446.331 565.529 445.782 565.395 445.287 565.14C444.792 564.884 444.365 564.513 444.042 564.059C443.719 563.604 443.51 563.079 443.431 562.528C443.352 561.976 443.406 561.413 443.589 560.887L485.454 441.27C486.394 438.584 488.147 436.256 490.47 434.611C492.792 432.965 495.569 432.083 498.416 432.087L636.991 432.275C637.674 432.277 638.346 432.442 638.951 432.758C639.557 433.074 640.077 433.531 640.469 434.091C640.861 434.65 641.112 435.296 641.202 435.973C641.292 436.65 641.218 437.338 640.985 437.981L596.545 560.953C596.192 561.935 595.547 562.786 594.697 563.392C593.847 563.998 592.833 564.331 591.789 564.346L513.549 565.53Z" fill="black"/>
<path opacity="0.2" d="M495.511 565.38L513.549 487.167V565.53L495.511 565.38Z" fill="black"/>
<path d="M513.549 487.167L513.229 572.786H595.652L594.694 487.807L513.549 487.167Z" fill="#2F2E41"/>
<path opacity="0.75" d="M442.039 543.878C447.58 537.683 448.392 529.371 443.853 525.311C439.315 521.252 431.144 522.983 425.603 529.177C420.063 535.372 419.25 543.685 423.789 547.744C428.328 551.804 436.498 550.073 442.039 543.878Z" fill="#E6E7E8"/>
<path d="M243.561 539.973L208.971 540.481L207.712 518.167L244.811 518.42L243.561 539.973Z" fill="#0071F2"/>
<path d="M210.72 560.53L212.731 573.566L239.068 573.679L240.553 559.524L210.72 560.53Z" fill="#0071F2"/>
<path d="M164.606 572.128H693.152C693.672 572.128 694.186 572.231 694.666 572.43C695.146 572.628 695.583 572.92 695.95 573.287C696.318 573.655 696.609 574.091 696.808 574.571C697.007 575.051 697.109 575.566 697.109 576.086V581.199H160.64V576.086C160.64 575.565 160.743 575.05 160.942 574.569C161.141 574.088 161.434 573.652 161.802 573.284C162.171 572.917 162.608 572.625 163.089 572.427C163.57 572.229 164.086 572.127 164.606 572.128Z" fill="#D1D3D4"/>
<path d="M244.811 518.42L207.712 518.167L209.47 509.397H242.809L244.811 518.42Z" fill="#0071F2"/>
<path d="M209.216 561.789L206.208 536.467H246.071L243.063 562.033L209.216 561.789Z" fill="#0071F2"/>
<path opacity="0.2" d="M209.216 561.789L206.208 536.467H246.071L243.063 562.033L209.216 561.789Z" fill="black"/>
<path d="M249.069 515.413H203.952V521.174H249.069V515.413Z" fill="#0071F2"/>
<path opacity="0.2" d="M249.069 515.413H203.952V521.174H249.069V515.413Z" fill="white"/>
<path d="M350.582 114.285C356.189 114.285 360.734 109.74 360.734 104.134C360.734 98.5272 356.189 93.9823 350.582 93.9823C344.976 93.9823 340.431 98.5272 340.431 104.134C340.431 109.74 344.976 114.285 350.582 114.285Z" fill="#0071F2"/>
<path d="M576.671 153.669L610.95 173.859L643.359 153.199L609.55 131.129L576.671 153.669Z" fill="#D1D3D4"/>
<path d="M610.33 211.259L610.95 173.859L643.359 153.199L643.397 187.798L610.33 211.259Z" fill="#BCBEC0"/>
<path d="M576.671 153.669L577.112 190.524L610.33 211.259L610.95 173.859L576.671 153.669Z" fill="#A7A9AC"/>
<path d="M318.946 22.6755L353.226 42.8748L385.635 22.2056L351.816 0.135834L318.946 22.6755Z" fill="#D1D3D4"/>
<path d="M352.605 80.2749L353.226 42.8748L385.635 22.2055L385.672 56.8046L352.605 80.2749Z" fill="#BCBEC0"/>
<path d="M318.946 22.6755L319.379 59.5304L352.605 80.2749L353.226 42.8748L318.946 22.6755Z" fill="#A7A9AC"/>
<path d="M633.751 334.125L668.03 354.315L700.439 333.655L666.62 311.586L633.751 334.125Z" fill="#D1D3D4"/>
<path d="M667.41 391.715L668.03 354.315L700.439 333.655L700.477 368.254L667.41 391.715Z" fill="#BCBEC0"/>
<path d="M633.751 334.125L634.183 370.98L667.41 391.715L668.03 354.315L633.751 334.125Z" fill="#A7A9AC"/>
<path d="M67.1744 137.99L101.463 158.189L133.863 137.52L100.053 115.451L67.1744 137.99Z" fill="#D1D3D4"/>
<path d="M100.834 195.59L101.463 158.189L133.863 137.52L133.91 172.119L100.834 195.59Z" fill="#BCBEC0"/>
<path d="M67.1744 137.99L67.6162 174.845L100.834 195.59L101.463 158.189L67.1744 137.99Z" fill="#A7A9AC"/>
<path d="M0.65094 340.584L34.9398 360.774L67.3395 340.114L33.5299 318.035L0.65094 340.584Z" fill="#D1D3D4"/>
<path d="M34.3101 398.174L34.9398 360.774L67.3395 340.114L67.3865 374.704L34.3101 398.174Z" fill="#BCBEC0"/>
<path d="M0.65094 340.584L1.0927 377.439L34.3101 398.174L34.9398 360.774L0.65094 340.584Z" fill="#A7A9AC"/>
</svg>
