<svg width="821" height="678" viewBox="0 0 821 678" fill="none" xmlns="http://www.w3.org/2000/svg">
<g id="server">
<path id="Vector" d="M173.319 263.648C166.875 266.319 158.337 269.605 147.882 272.961C147.882 272.961 80.5677 284.429 68.3557 363.627C68.3557 363.627 55.4488 407.312 113.48 431.716L160.064 453.936C160.064 453.936 224.599 485.578 221.243 550.976C220.436 564.722 223.449 578.422 229.95 590.561C240.216 609.424 260.282 631.039 298.387 631.138C298.387 631.138 338.885 641.344 346.768 599.367C346.768 599.367 363.338 512.99 421.529 516.237L514.299 513.01C514.299 513.01 544.373 521.608 569.025 498.316C569.025 498.316 590.45 483.979 587.224 451.374C587.224 451.374 583.54 429.532 600.964 420.914C600.964 420.914 670.969 375.402 656.871 349.956C656.871 349.956 596.894 305.526 595.464 285.819C595.464 285.819 589.308 270.32 587.521 247.316C586.905 239.044 587.094 230.731 588.087 222.495C589.567 209.827 590.301 180.796 567.535 172.645C567.535 172.645 553.765 159.668 509.762 174.005C509.762 174.005 444.056 202.668 418.53 150.713L400.103 115.05C400.103 115.05 384.416 65.4082 324.925 66.133C324.925 66.133 272.305 68.6846 261.503 126.18C261.503 126.18 254.811 197.575 205.397 243.166C195.994 251.829 185.134 258.763 173.319 263.648Z" fill="#0071F2"/>
<path id="Vector_2" opacity="0.7" d="M173.319 263.648C166.875 266.319 158.337 269.605 147.882 272.961C147.882 272.961 80.5677 284.429 68.3557 363.627C68.3557 363.627 55.4488 407.312 113.48 431.716L160.064 453.936C160.064 453.936 224.599 485.578 221.243 550.976C220.436 564.722 223.449 578.422 229.95 590.561C240.216 609.424 260.282 631.039 298.387 631.138C298.387 631.138 338.885 641.344 346.768 599.367C346.768 599.367 363.338 512.99 421.529 516.237L514.299 513.01C514.299 513.01 544.373 521.608 569.025 498.316C569.025 498.316 590.45 483.979 587.224 451.374C587.224 451.374 583.54 429.532 600.964 420.914C600.964 420.914 670.97 375.402 656.871 349.956C656.871 349.956 596.894 305.526 595.464 285.819C595.464 285.819 589.308 270.32 587.521 247.316C586.905 239.044 587.094 230.731 588.087 222.495C589.567 209.827 590.301 180.796 567.535 172.645C567.535 172.645 553.765 159.668 509.762 174.005C509.762 174.005 444.056 202.668 418.53 150.713L400.103 115.05C400.103 115.05 384.416 65.4082 324.925 66.133C324.925 66.133 272.305 68.6846 261.503 126.18C261.503 126.18 254.811 197.575 205.397 243.166C195.994 251.829 185.134 258.763 173.319 263.648Z" fill="white"/>
<g id="setting">
<path id="Vector_3" opacity="0.2" d="M272.235 493.352L265.067 485.111L251.445 491.455V477.943L238.191 473.286L229.593 486.193L219.198 476.513L208.803 482.252L214.422 498.405L197.127 500.282V512.921L208.981 517.13L199.46 529.938L206.291 541.763L219.555 535.806V549.963L231.052 552.475L238.578 538.506L248.248 548.176L260.262 541.455L255.297 527.654H269.416L272.235 511.312L258.613 509.168L272.235 493.352ZM234.249 527.396C231.413 527.398 228.64 526.559 226.282 524.985C223.923 523.411 222.083 521.172 220.997 518.553C219.91 515.933 219.625 513.05 220.177 510.269C220.729 507.487 222.094 504.932 224.098 502.926C226.103 500.92 228.657 499.553 231.439 498.999C234.22 498.445 237.103 498.729 239.723 499.813C242.344 500.898 244.583 502.736 246.159 505.094C247.735 507.451 248.576 510.224 248.576 513.06C248.576 516.86 247.067 520.505 244.38 523.194C241.694 525.882 238.05 527.394 234.249 527.396Z" fill="black"/>
<path id="Vector_4" d="M272.235 493.352L265.067 485.111L251.445 491.455V477.943L238.191 473.286L229.593 486.193L219.198 476.513L208.803 482.252L214.422 498.405L197.127 500.282V512.921L208.981 517.13L199.46 529.938L206.291 541.763L219.555 535.806V549.963L231.052 552.475L238.578 538.506L248.248 548.176L260.262 541.455L255.297 527.654H269.416L272.235 511.312L258.613 509.168L272.235 493.352ZM234.249 527.396C231.413 527.398 228.64 526.559 226.282 524.985C223.923 523.411 222.083 521.172 220.997 518.553C219.91 515.933 219.625 513.05 220.177 510.269C220.729 507.487 222.094 504.932 224.098 502.926C226.103 500.92 228.657 499.553 231.439 498.999C234.22 498.445 237.103 498.729 239.723 499.813C242.344 500.898 244.583 502.736 246.159 505.094C247.735 507.451 248.576 510.224 248.576 513.06C248.576 516.86 247.067 520.505 244.38 523.194C241.694 525.882 238.05 527.394 234.249 527.396Z" fill="#0071F2"/>
</g>
<path id="Vector_5" d="M462.592 407.342H484.911" stroke="#FF0000" stroke-width="0.992839" stroke-miterlimit="10"/>
<path id="Vector_6" d="M288.716 366.358H295.885V559.286C295.885 560.237 295.507 561.148 294.835 561.821C294.163 562.493 293.251 562.87 292.301 562.87C291.83 562.87 291.364 562.778 290.929 562.598C290.494 562.417 290.099 562.153 289.766 561.821C289.433 561.488 289.169 561.093 288.989 560.658C288.809 560.223 288.716 559.757 288.716 559.286V366.358Z" fill="#2F2E41"/>
<path id="Vector_7" d="M479.719 366.358H486.887V559.286C486.887 560.237 486.509 561.148 485.837 561.821C485.165 562.493 484.254 562.87 483.303 562.87C482.352 562.87 481.441 562.493 480.769 561.821C480.096 561.148 479.719 560.237 479.719 559.286V366.358Z" fill="#2F2E41"/>
<g id="Group" opacity="0.2">
<path id="Vector_8" d="M246.074 492.627C246.027 492.627 245.981 492.618 245.937 492.6C245.894 492.582 245.854 492.555 245.821 492.522C245.788 492.489 245.762 492.45 245.744 492.406C245.726 492.363 245.716 492.316 245.716 492.269V479.73C245.716 479.635 245.754 479.544 245.821 479.477C245.888 479.41 245.979 479.372 246.074 479.372C246.169 479.372 246.26 479.41 246.327 479.477C246.394 479.544 246.431 479.635 246.431 479.73V492.269C246.431 492.316 246.422 492.363 246.404 492.406C246.386 492.45 246.36 492.489 246.327 492.522C246.293 492.555 246.254 492.582 246.211 492.6C246.167 492.618 246.121 492.627 246.074 492.627Z" fill="black"/>
</g>
<g id="Group_2" opacity="0.2">
<path id="Vector_9" d="M219.913 527.396C219.816 527.394 219.723 527.355 219.654 527.287C209.557 516.822 216.309 504.452 216.378 504.283C216.401 504.242 216.432 504.205 216.468 504.176C216.505 504.147 216.547 504.125 216.593 504.112C216.638 504.099 216.685 504.096 216.732 504.101C216.778 504.106 216.824 504.121 216.865 504.144C216.946 504.192 217.005 504.269 217.031 504.359C217.057 504.45 217.047 504.547 217.004 504.63C216.934 504.749 210.441 516.713 220.171 526.79C220.204 526.824 220.23 526.863 220.249 526.907C220.267 526.95 220.276 526.997 220.276 527.044C220.276 527.091 220.267 527.137 220.249 527.181C220.23 527.224 220.204 527.264 220.171 527.297C220.1 527.361 220.008 527.396 219.913 527.396Z" fill="black"/>
</g>
<g id="Group_3" opacity="0.2">
<path id="Vector_10" d="M228.868 548.176H228.719C228.677 548.156 228.639 548.128 228.607 548.093C228.576 548.058 228.552 548.017 228.536 547.973C228.52 547.929 228.514 547.882 228.516 547.835C228.518 547.788 228.53 547.742 228.55 547.7L233.207 537.662C233.248 537.576 233.321 537.511 233.41 537.479C233.499 537.447 233.598 537.452 233.683 537.493C233.769 537.534 233.835 537.607 233.866 537.697C233.898 537.786 233.893 537.884 233.852 537.97L229.196 547.998C229.163 548.055 229.115 548.102 229.057 548.133C228.999 548.165 228.934 548.18 228.868 548.176Z" fill="black"/>
</g>
<path id="Vector_11" d="M146.81 318.473L192.679 451.067L310.708 408.156L265.424 276.188L146.81 318.473Z" fill="white"/>
<path id="Vector_12" d="M113.48 324.748H113.391C113.252 324.723 113.128 324.645 113.046 324.53C112.964 324.415 112.931 324.272 112.954 324.132C114.752 315.379 117.61 306.877 121.463 298.815C127.499 285.908 138.808 268.037 158.366 255.855C184.984 239.324 219.724 237.308 261.622 249.898C261.703 249.902 261.783 249.925 261.854 249.964C261.925 250.004 261.987 250.059 262.033 250.126C262.08 250.193 262.111 250.27 262.123 250.351C262.136 250.431 262.13 250.514 262.106 250.592C262.082 250.67 262.04 250.741 261.984 250.8C261.928 250.86 261.859 250.906 261.783 250.935C261.706 250.963 261.625 250.974 261.543 250.967C261.462 250.959 261.384 250.933 261.314 250.89C219.714 238.41 185.272 240.386 158.942 256.748C139.602 268.752 128.413 286.474 122.436 299.212C118.62 307.199 115.789 315.621 114.006 324.291C113.984 324.416 113.919 324.529 113.824 324.612C113.728 324.695 113.607 324.743 113.48 324.748Z" fill="#0071F2"/>
<path id="Vector_13" d="M238.548 253.254C238.548 253.254 250.373 247.167 261.483 250.384C261.483 250.384 256.102 242.501 242.132 239.284" stroke="#0071F2" stroke-width="2.97852" stroke-linecap="round" stroke-linejoin="round"/>
<path id="Vector_14" d="M127.102 271.045C127.004 271.043 126.908 271.016 126.824 270.966C126.763 270.93 126.71 270.882 126.668 270.826C126.626 270.77 126.595 270.706 126.577 270.637C126.56 270.569 126.556 270.498 126.566 270.428C126.576 270.359 126.599 270.291 126.635 270.231C131.639 262.626 137.819 255.863 144.943 250.195C160.954 237.165 180.991 230.094 201.634 230.19C201.777 230.19 201.913 230.246 202.013 230.347C202.114 230.447 202.171 230.584 202.171 230.726C202.171 230.868 202.114 231.004 202.013 231.105C201.913 231.205 201.777 231.262 201.634 231.262C181.258 231.16 161.477 238.133 145.668 250.99C138.636 256.569 132.537 263.231 127.598 270.727C127.556 270.823 127.486 270.904 127.398 270.96C127.31 271.017 127.207 271.046 127.102 271.045Z" fill="#2F2E41"/>
<path id="Vector_15" d="M536.708 486.084C535.397 486.084 534.067 486.084 532.736 486.005C532.595 485.997 532.462 485.935 532.366 485.831C532.27 485.727 532.217 485.59 532.22 485.449C532.223 485.378 532.239 485.307 532.269 485.243C532.299 485.178 532.342 485.12 532.395 485.072C532.447 485.024 532.509 484.987 532.576 484.963C532.643 484.939 532.715 484.929 532.786 484.933C554.549 485.786 572.698 479.601 586.737 466.545C601.798 452.546 609.364 433.007 613.057 419.087C615.451 410.205 616.945 401.105 617.515 391.923C617.515 391.781 617.571 391.645 617.672 391.544C617.772 391.444 617.909 391.387 618.051 391.387C618.193 391.387 618.33 391.444 618.43 391.544C618.531 391.645 618.587 391.781 618.587 391.923C618.015 401.178 616.512 410.352 614.1 419.306C610.376 433.374 602.732 453.112 587.472 467.3C574.068 479.78 557.011 486.084 536.708 486.084Z" fill="#0071F2"/>
<path id="Vector_16" d="M551.59 491.088C539.13 491.088 532.727 485.965 532.399 485.727C532.314 485.656 532.254 485.561 532.225 485.454C532.197 485.347 532.202 485.235 532.24 485.131C532.275 485.027 532.342 484.937 532.431 484.873C532.52 484.809 532.627 484.774 532.736 484.774C543.955 484.714 553.447 475.749 553.586 475.659C553.635 475.609 553.694 475.569 553.759 475.541C553.823 475.514 553.893 475.5 553.963 475.5C554.034 475.5 554.103 475.514 554.168 475.541C554.233 475.569 554.292 475.609 554.341 475.659C554.44 475.76 554.496 475.895 554.496 476.037C554.496 476.178 554.44 476.314 554.341 476.414C553.953 476.781 545.336 484.923 534.484 485.766C537.184 487.375 543.956 490.552 554.49 489.907C554.632 489.897 554.772 489.945 554.879 490.039C554.986 490.133 555.051 490.266 555.06 490.408C555.07 490.55 555.022 490.69 554.928 490.797C554.834 490.904 554.701 490.97 554.559 490.979C553.487 491.058 552.524 491.088 551.59 491.088Z" fill="#0071F2"/>
<path id="Vector_17" d="M461.798 225.126C461.805 230.745 460.899 236.328 459.117 241.657C455.794 251.613 449.453 260.287 440.976 266.475C432.498 272.663 422.304 276.058 411.809 276.188C384.198 276.188 361.819 253.353 361.819 225.126C361.807 218.603 363.026 212.135 365.413 206.064C366.462 203.421 367.724 200.867 369.186 198.429C373.576 191.028 379.811 184.892 387.282 180.622C394.753 176.351 403.203 174.092 411.809 174.065C417.924 174.053 423.987 175.195 429.68 177.43C431.402 178.096 433.083 178.866 434.713 179.734C442.932 184.118 449.798 190.663 454.571 198.662C459.344 206.661 461.843 215.811 461.798 225.126Z" fill="#2F2E41"/>
<path id="Vector_18" d="M714.436 289.81L667.495 399.459L463.595 285.868L477.564 257.552L456.764 247.475C457.671 245.587 458.457 243.644 459.117 241.657L479.719 251.188L494.045 217.789L714.436 289.81Z" fill="#0071F2"/>
<path id="Vector_19" d="M672.151 285.868L634.88 369.723" stroke="white" stroke-width="1.98568" stroke-miterlimit="10"/>
<path id="Vector_20" d="M631.296 269.744L595.464 350.006" stroke="white" stroke-width="1.98568" stroke-miterlimit="10"/>
<path id="Vector_21" d="M597.608 258.277L562.849 332.452" stroke="white" stroke-width="1.98568" stroke-miterlimit="10"/>
<path id="Vector_22" d="M567.516 248.597L537.77 318.473" stroke="white" stroke-width="1.98568" stroke-miterlimit="10"/>
<path id="Vector_23" d="M542.427 244.298L512.681 305.219" stroke="white" stroke-width="1.98568" stroke-miterlimit="10"/>
<path id="Vector_24" d="M521.289 236.057L494.413 294.109" stroke="white" stroke-width="1.98568" stroke-miterlimit="10"/>
<path id="Vector_25" d="M476.571 285.868L502.296 228.532" stroke="white" stroke-width="1.98568" stroke-miterlimit="10"/>
<path id="Vector_26" d="M491.007 236.057L689.426 308.624" stroke="white" stroke-width="1.98568" stroke-miterlimit="10"/>
<path id="Vector_27" d="M483.303 255.021L677.751 339.978" stroke="white" stroke-width="1.98568" stroke-miterlimit="10"/>
<path id="Vector_28" d="M475.033 272.336L663.017 369.723" stroke="white" stroke-width="1.98568" stroke-miterlimit="10"/>
<path id="Vector_29" d="M445.674 200.216C445.674 200.216 460.011 214.195 453.2 232.473" stroke="white" stroke-width="1.98568" stroke-linecap="round" stroke-linejoin="round"/>
<path id="Vector_30" d="M411.809 266.577C411.809 266.577 442.13 266.577 450.351 241.101" stroke="white" stroke-width="1.98568" stroke-linecap="round" stroke-linejoin="round"/>
<path id="Vector_31" d="M369.186 198.429C367.724 200.867 366.462 203.421 365.413 206.064L344.623 195.202L325.839 232.473L131.768 162.955L194.466 51.8659L365.761 157.574L348.882 188.749L369.186 198.429Z" fill="#0071F2"/>
<path id="Vector_32" d="M150.751 158.656L197.693 71.5737" stroke="white" stroke-width="1.98568" stroke-miterlimit="10"/>
<path id="Vector_33" d="M225.651 88.0549L183.724 166.181" stroke="white" stroke-width="1.98568" stroke-miterlimit="10"/>
<path id="Vector_34" d="M254.672 103.464L214.899 178.006" stroke="white" stroke-width="1.98568" stroke-miterlimit="10"/>
<path id="Vector_35" d="M280.833 118.873L242.132 191.618" stroke="white" stroke-width="1.98568" stroke-miterlimit="10"/>
<path id="Vector_36" d="M304.84 133.924L268.294 202.371" stroke="white" stroke-width="1.98568" stroke-miterlimit="10"/>
<path id="Vector_37" d="M326.345 145.034L291.943 210.254" stroke="white" stroke-width="1.98568" stroke-miterlimit="10"/>
<path id="Vector_38" d="M346.827 155.25L313.438 219.566" stroke="white" stroke-width="1.98568" stroke-miterlimit="10"/>
<path id="Vector_39" d="M187.486 79.9733L346.827 172.506" stroke="white" stroke-width="1.98568" stroke-miterlimit="10"/>
<path id="Vector_40" d="M169.744 109.917L334.834 191.618" stroke="white" stroke-width="1.98568" stroke-miterlimit="10"/>
<path id="Vector_41" d="M154.048 142.165L322.046 214.195" stroke="white" stroke-width="1.98568" stroke-miterlimit="10"/>
<path id="Vector_42" d="M451.026 140.983L434.723 179.704C433.093 178.836 431.412 178.067 429.69 177.401L445.506 139.176C447.215 140.122 449.088 140.735 451.026 140.983Z" fill="#0071F2"/>
<path id="Vector_43" d="M468.609 125.505C468.609 129.639 466.967 133.604 464.043 136.527C461.12 139.45 457.155 141.092 453.021 141.092C452.357 141.094 451.694 141.051 451.036 140.963C448.063 140.58 445.263 139.347 442.973 137.412C440.683 135.478 438.999 132.924 438.123 130.057C437.248 127.19 437.218 124.131 438.036 121.247C438.855 118.363 440.488 115.777 442.739 113.797C444.991 111.818 447.765 110.53 450.73 110.087C453.695 109.645 456.725 110.067 459.456 111.302C462.187 112.538 464.504 114.535 466.13 117.054C467.755 119.573 468.619 122.507 468.619 125.505H468.609Z" fill="#0071F2"/>
<path id="Vector_44" d="M458.929 116.003C458.929 116.003 468.252 122.953 461.798 131.889" stroke="white" stroke-width="1.98568" stroke-linecap="round" stroke-linejoin="round"/>
<path id="first" d="M482.102 126.776H482.052C481.982 126.771 481.913 126.752 481.851 126.72C481.788 126.688 481.733 126.644 481.687 126.59C481.642 126.537 481.608 126.474 481.587 126.407C481.566 126.34 481.559 126.27 481.565 126.2C482.37 116.202 479.58 108.15 473.494 102.918C470.75 100.544 467.489 98.8441 463.972 97.9535C463.903 97.9416 463.836 97.9158 463.777 97.8777C463.717 97.8395 463.666 97.7898 463.626 97.7314C463.586 97.673 463.559 97.6072 463.545 97.5379C463.531 97.4686 463.531 97.3972 463.545 97.328C463.574 97.1877 463.657 97.0644 463.776 96.9845C463.895 96.9047 464.04 96.8747 464.181 96.9011C467.883 97.8053 471.314 99.5823 474.189 102.084C478.627 105.896 483.7 113.184 482.628 126.259C482.625 126.397 482.569 126.528 482.47 126.625C482.372 126.722 482.239 126.776 482.102 126.776Z" fill="#2F2E41"/>
<path id="second" d="M425.649 101.498C425.539 101.496 425.432 101.461 425.341 101.399C425.223 101.316 425.143 101.191 425.117 101.05C425.091 100.909 425.121 100.763 425.202 100.644C425.311 100.505 435.686 85.9898 450.569 91.103C450.676 91.1659 450.758 91.2641 450.801 91.3806C450.843 91.4972 450.844 91.625 450.803 91.7421C450.762 91.8593 450.682 91.9586 450.576 92.0231C450.47 92.0876 450.344 92.1133 450.222 92.0958C436.103 87.2408 426.185 101.091 426.086 101.24C426.04 101.316 425.976 101.379 425.9 101.424C425.823 101.469 425.737 101.494 425.649 101.498Z" fill="#2F2E41"/>
<path id="third" d="M468.609 82.1475C468.539 82.1481 468.469 82.1344 468.404 82.107C468.339 82.0797 468.28 82.0394 468.232 81.9886C462.433 76.3394 454.898 74.6218 445.833 76.8755C441.578 77.9754 437.517 79.7198 433.79 82.0482C433.732 82.0892 433.667 82.1182 433.598 82.1334C433.529 82.1487 433.458 82.1498 433.388 82.1369C433.319 82.1239 433.253 82.0971 433.194 82.0579C433.135 82.0188 433.084 81.9682 433.045 81.9092C432.965 81.792 432.935 81.6477 432.961 81.5081C432.987 81.3685 433.067 81.245 433.184 81.1646C436.986 78.7537 441.144 76.9577 445.506 75.8429C454.838 73.5098 462.94 75.3664 468.946 81.2241C469.044 81.3257 469.098 81.4609 469.098 81.6014C469.098 81.742 469.044 81.8771 468.946 81.9787C468.857 82.0726 468.738 82.1323 468.609 82.1475Z" fill="#2F2E41"/>
<path id="fourth" d="M502.673 110.453C502.531 110.453 502.395 110.397 502.294 110.296C502.194 110.196 502.137 110.059 502.137 109.917C501.998 94.3793 495.565 82.4751 482.995 74.5522C477.185 70.9374 470.739 68.4641 464.002 67.2648C463.866 67.2413 463.744 67.166 463.661 67.0545C463.579 66.9431 463.544 66.8042 463.562 66.6669C463.579 66.5296 463.65 66.4046 463.758 66.3181C463.866 66.2315 464.003 66.1901 464.141 66.2025C471.021 67.4126 477.603 69.9339 483.531 73.6289C492.467 79.2186 503.041 90.0505 503.209 109.907C503.212 109.978 503.2 110.049 503.175 110.115C503.15 110.181 503.112 110.241 503.062 110.292C503.013 110.343 502.954 110.384 502.889 110.411C502.824 110.439 502.754 110.453 502.683 110.453H502.673Z" fill="#2F2E41"/>
<path id="fifth" d="M422.74 62.0723C422.633 62.0736 422.529 62.0432 422.44 61.985C422.351 61.9268 422.281 61.8434 422.24 61.7455C422.198 61.6476 422.187 61.5395 422.207 61.4351C422.227 61.3306 422.278 61.2345 422.353 61.1589C425.996 57.7855 430.234 55.1191 434.852 53.2956C442.17 50.3171 453.994 47.7357 468.778 52.7893C468.856 52.8005 468.931 52.8289 468.997 52.8725C469.063 52.9161 469.119 52.9738 469.16 53.0415C469.201 53.1092 469.227 53.1852 469.235 53.264C469.244 53.3428 469.234 53.4224 469.208 53.4972C469.182 53.572 469.14 53.64 469.084 53.6964C469.028 53.7529 468.961 53.7962 468.887 53.8235C468.812 53.8507 468.733 53.8612 468.654 53.854C468.575 53.8469 468.499 53.8223 468.43 53.7821C453.994 48.8179 442.448 51.31 435.309 54.2488C430.816 56.033 426.688 58.6239 423.127 61.8936C423.078 61.9483 423.018 61.9924 422.952 62.0231C422.885 62.0539 422.813 62.0706 422.74 62.0723Z" fill="#2F2E41"/>
<path id="last" d="M512.81 91.083C512.675 91.0812 512.546 91.0294 512.447 90.9377C512.348 90.8461 512.286 90.721 512.274 90.5866C511.281 78.5931 503.13 70.9681 496.498 66.6989C492.045 63.8407 487.199 61.6497 482.112 60.1958C481.973 60.1606 481.853 60.0721 481.779 59.9495C481.704 59.8269 481.681 59.68 481.714 59.5405C481.732 59.472 481.763 59.4075 481.805 59.3508C481.847 59.2942 481.901 59.2465 481.961 59.2105C482.022 59.1745 482.09 59.1509 482.16 59.1411C482.23 59.1313 482.301 59.1355 482.37 59.1533C487.563 60.6375 492.512 62.8682 497.064 65.7756C506.873 72.1 512.502 80.6682 513.346 90.4973C513.353 90.5672 513.346 90.6378 513.325 90.7049C513.304 90.7719 513.27 90.8342 513.224 90.8878C513.179 90.9415 513.124 90.9855 513.061 91.0174C512.998 91.0492 512.93 91.0682 512.86 91.0731L512.81 91.083Z" fill="#2F2E41"/>
<path id="Vector_45" d="M174.043 370.974C173.973 370.969 173.904 370.95 173.841 370.919C173.778 370.887 173.722 370.843 173.676 370.79C173.629 370.736 173.594 370.674 173.572 370.607C173.55 370.54 173.542 370.469 173.547 370.399C174.075 365.027 175.18 359.728 176.843 354.593C180.467 343.542 186.255 335.967 193.573 332.681C193.693 332.63 193.827 332.621 193.953 332.655C194.078 332.69 194.189 332.765 194.268 332.869C194.506 333.167 195.26 334.061 192.888 344.783C192.024 349.34 190.554 361.86 194.029 364.739C194.913 365.464 196.015 365.534 197.534 364.948C200.136 363.9 202.258 361.927 203.491 359.408C202.528 359.052 201.699 358.407 201.118 357.561C198.785 354.116 201.039 348.159 201.208 347.712C201.793 345.875 202.538 344.793 203.481 344.396C203.782 344.276 204.105 344.225 204.428 344.246C204.751 344.266 205.065 344.358 205.348 344.515C205.827 344.766 206.229 345.142 206.511 345.604C206.792 346.066 206.943 346.595 206.946 347.136C207.105 351.084 206.445 355.022 205.01 358.703C205.45 358.777 205.895 358.813 206.341 358.812C207.045 358.574 212.178 356.538 212.298 348.884C212.298 348.228 212.298 347.623 212.298 347.176C212.297 347.037 212.351 346.904 212.448 346.804C212.544 346.704 212.675 346.645 212.814 346.64C212.883 346.636 212.952 346.646 213.018 346.668C213.083 346.691 213.143 346.727 213.195 346.773C213.247 346.819 213.289 346.875 213.319 346.937C213.349 346.999 213.366 347.067 213.37 347.136C213.37 347.692 213.429 348.228 213.419 348.735C213.558 350.979 213.985 352.845 214.412 352.984C214.482 352.984 214.829 352.885 215.405 352.041C215.88 351.323 216.242 350.536 216.477 349.708C217.153 347.385 218.344 344.525 220.24 344.158C221.233 343.959 222.226 344.495 223.219 345.766C223.264 345.821 223.297 345.884 223.317 345.952C223.337 346.021 223.343 346.092 223.335 346.163C223.327 346.233 223.304 346.301 223.269 346.363C223.234 346.424 223.186 346.478 223.129 346.521C223.017 346.607 222.875 346.646 222.734 346.629C222.593 346.612 222.464 346.541 222.375 346.431C221.65 345.508 220.985 345.101 220.389 345.21C219.396 345.409 218.255 347.196 217.411 350.006C217.145 350.943 216.737 351.834 216.199 352.647C215.912 353.064 215.048 354.334 214.005 354.007C213.469 353.848 213.092 353.272 212.824 352.498C212.446 354.148 211.672 355.681 210.568 356.965C209.465 358.249 208.065 359.244 206.489 359.864H206.341C205.707 359.869 205.075 359.809 204.454 359.686C203.113 362.515 200.761 364.739 197.862 365.921C196.005 366.646 194.466 366.517 193.275 365.534C188.598 361.662 191.627 345.23 191.766 344.535C193.344 337.287 193.463 334.756 193.404 333.912C176.833 341.924 174.54 370.19 174.54 370.478C174.531 370.607 174.475 370.728 174.384 370.819C174.293 370.91 174.172 370.965 174.043 370.974ZM204.246 345.28C204.119 345.283 203.995 345.31 203.878 345.359C203.441 345.538 202.806 346.143 202.21 348.02C202.21 348.08 199.937 353.858 202.002 356.886C202.489 357.578 203.185 358.096 203.988 358.365C205.407 354.784 206.059 350.945 205.904 347.097C205.898 346.753 205.804 346.418 205.63 346.122C205.456 345.826 205.208 345.58 204.911 345.409C204.704 345.31 204.475 345.266 204.246 345.28Z" fill="#2F2E41"/>
<path id="Vector_46" d="M237.833 316.15C237.689 316.146 237.551 316.09 237.446 315.991C237.346 315.889 237.29 315.752 237.29 315.609C237.29 315.466 237.346 315.329 237.446 315.227C241.476 311.085 245.088 306.555 248.228 301.704C247.685 296.766 248.647 291.779 250.988 287.397C251.155 287.091 251.416 286.847 251.733 286.702C252.05 286.557 252.405 286.519 252.746 286.593C253.082 286.661 253.386 286.836 253.614 287.092C253.841 287.348 253.979 287.671 254.007 288.013C254.364 292.312 252.18 297.375 249.33 302.002C249.552 303.958 249.954 305.889 250.532 307.77C250.527 307.8 250.527 307.83 250.532 307.86C250.641 308.704 251.217 311.176 252.339 311.464C253.064 311.642 254.106 310.838 255.317 309.2L258.554 304.891C258.633 304.787 258.747 304.716 258.875 304.69C259.003 304.665 259.136 304.687 259.249 304.752C259.362 304.815 259.448 304.918 259.491 305.041C259.533 305.164 259.528 305.298 259.477 305.417C258.792 307.145 258.137 309.974 258.931 310.59C259.169 310.769 260.262 311.166 264.034 308.366C264.091 308.324 264.156 308.293 264.224 308.275C264.293 308.258 264.364 308.254 264.434 308.264C264.504 308.274 264.572 308.298 264.633 308.334C264.693 308.371 264.747 308.419 264.789 308.475C264.831 308.532 264.862 308.596 264.88 308.665C264.897 308.734 264.901 308.805 264.891 308.875C264.88 308.945 264.857 309.013 264.82 309.073C264.784 309.134 264.736 309.187 264.68 309.23C261.453 311.623 259.418 312.317 258.276 311.434C257.392 310.759 257.382 309.289 257.631 307.909L256.191 309.835C254.672 311.94 253.332 312.814 252.1 312.506C250.115 312.01 249.579 308.614 249.499 308.038C249.033 306.525 248.681 304.978 248.447 303.412C245.425 307.905 242.002 312.116 238.221 315.991C238.117 316.091 237.978 316.148 237.833 316.15ZM252.398 287.636C252.302 287.634 252.208 287.659 252.125 287.708C252.043 287.757 251.976 287.828 251.932 287.914C249.926 291.646 248.979 295.854 249.191 300.086C251.554 296.005 253.232 291.726 252.934 288.102C252.927 287.991 252.883 287.886 252.81 287.804C252.736 287.721 252.636 287.665 252.527 287.645L252.398 287.636Z" fill="#2F2E41"/>
<path id="Vector_47" d="M236.165 348.397C236.071 348.398 235.979 348.374 235.897 348.328C235.774 348.253 235.685 348.134 235.65 347.994C235.615 347.855 235.636 347.707 235.709 347.583C236.701 345.865 245.716 330.774 250.82 330.437C251.223 330.403 251.628 330.472 251.998 330.637C252.368 330.802 252.69 331.057 252.934 331.38C253.222 331.708 254.195 333.246 251.286 337.337C250.582 338.328 250.173 339.499 250.105 340.713C250.105 341.477 250.194 342.023 250.432 342.182C250.671 342.341 250.979 342.242 251.425 342.023C252.319 340.782 254.95 337.357 256.717 337.704C257.134 337.784 257.71 338.091 257.918 339.114C258.078 339.857 258.353 340.571 258.733 341.229C259.944 343.215 261.264 343.83 262.704 342.996C263.261 342.65 263.704 342.149 263.981 341.555C264.258 340.961 264.356 340.299 264.263 339.65C263.955 337.099 263.905 333.644 265.444 331.708C265.748 331.315 266.13 330.99 266.566 330.752C267.001 330.515 267.482 330.37 267.976 330.327C268.534 330.273 269.092 330.429 269.54 330.766C269.988 331.102 270.294 331.594 270.398 332.144C270.627 333.385 270.726 335.758 269.912 340.028C269.883 340.166 269.802 340.287 269.685 340.367C269.569 340.447 269.426 340.478 269.286 340.454C269.217 340.443 269.15 340.417 269.091 340.379C269.031 340.34 268.98 340.291 268.94 340.232C268.9 340.174 268.873 340.108 268.859 340.039C268.845 339.97 268.845 339.898 268.86 339.829C269.634 335.719 269.545 333.485 269.336 332.333C269.283 332.051 269.126 331.798 268.897 331.626C268.667 331.453 268.381 331.373 268.095 331.4C267.74 331.429 267.394 331.533 267.081 331.704C266.768 331.875 266.495 332.109 266.278 332.393C264.918 334.11 265.097 337.595 265.335 339.521C265.453 340.377 265.32 341.248 264.952 342.029C264.583 342.81 263.995 343.467 263.26 343.919C261.334 345.071 259.358 344.287 257.849 341.785C257.411 341.032 257.096 340.214 256.916 339.362C256.916 339.154 256.747 338.796 256.548 338.757C255.784 338.608 253.719 340.742 252.269 342.728C252.215 342.797 252.148 342.855 252.071 342.897C251.75 343.116 251.377 343.246 250.989 343.272C250.601 343.298 250.214 343.22 249.867 343.046C249.271 342.668 249.003 341.854 249.052 340.633C249.12 339.204 249.599 337.825 250.432 336.662C252.924 333.107 252.15 332.005 252.14 331.986C252.005 331.789 251.819 331.631 251.603 331.53C251.387 331.429 251.147 331.387 250.909 331.41C247.067 331.668 239.313 343.493 236.652 348.03C236.616 348.132 236.551 348.222 236.465 348.288C236.378 348.353 236.274 348.391 236.165 348.397Z" fill="#2F2E41"/>
<path id="Vector_48" d="M254.94 388.27C254.506 388.287 254.072 388.218 253.665 388.066C253.257 387.915 252.884 387.683 252.567 387.386C249.688 384.596 252.359 376.058 252.567 375.412C252.735 374.829 252.796 374.22 252.746 373.615C251.967 374.117 251.293 374.764 250.76 375.522C249.962 376.521 248.914 377.291 247.722 377.756C247.234 378.017 246.685 378.144 246.132 378.123C245.579 378.102 245.042 377.934 244.575 377.636C243.363 376.693 243.334 374.658 243.522 373.099C243.568 372.788 243.532 372.47 243.419 372.176C243.306 371.882 243.119 371.622 242.877 371.421C240.544 369.604 234.815 374.509 232.8 376.544C232.75 376.595 232.69 376.635 232.625 376.663C232.559 376.69 232.489 376.705 232.417 376.705C232.346 376.705 232.276 376.69 232.21 376.663C232.145 376.635 232.085 376.595 232.035 376.544C231.935 376.442 231.879 376.305 231.879 376.162C231.879 376.019 231.935 375.882 232.035 375.78C232.839 374.966 240.037 367.837 243.532 370.558C243.924 370.871 244.226 371.282 244.411 371.748C244.596 372.215 244.655 372.722 244.585 373.218C244.376 374.995 244.585 376.286 245.24 376.783C245.677 377.12 246.382 377.11 247.335 376.783C248.351 376.386 249.245 375.728 249.926 374.876C251.912 372.444 252.686 372.364 253.203 372.613C253.719 372.861 253.967 373.844 253.57 375.69C253.571 375.707 253.571 375.724 253.57 375.74C252.795 378.103 251.257 384.676 253.282 386.661C254.017 387.376 255.268 387.436 256.906 386.84C263.143 382.611 268.908 377.725 274.102 372.265C274.152 372.214 274.211 372.174 274.277 372.147C274.342 372.119 274.413 372.105 274.484 372.105C274.555 372.105 274.626 372.119 274.691 372.147C274.757 372.174 274.816 372.214 274.866 372.265C274.917 372.314 274.957 372.373 274.984 372.438C275.012 372.502 275.026 372.572 275.026 372.642C275.026 372.713 275.012 372.782 274.984 372.847C274.957 372.912 274.917 372.971 274.866 373.02C269.595 378.555 263.747 383.511 257.422 387.803L257.313 387.853C256.551 388.124 255.749 388.265 254.94 388.27Z" fill="#2F2E41"/>
<path id="Vector_49" d="M614.457 453.39C614.377 453.392 614.297 453.374 614.225 453.34C614.153 453.305 614.089 453.255 614.04 453.191C613.994 453.137 613.96 453.074 613.939 453.007C613.919 452.939 613.912 452.868 613.919 452.797C613.927 452.727 613.948 452.659 613.983 452.597C614.017 452.535 614.064 452.48 614.119 452.437C626.034 442.747 629.896 427.973 631.077 417.28C631.845 410.249 631.741 403.149 630.769 396.143C630.746 396.002 630.779 395.857 630.862 395.741C630.945 395.625 631.07 395.546 631.211 395.522C631.352 395.499 631.497 395.532 631.613 395.615C631.729 395.698 631.808 395.823 631.832 395.964C632.82 403.076 632.926 410.282 632.149 417.419C630.948 428.341 626.967 443.392 614.795 453.32C614.693 453.38 614.574 453.405 614.457 453.39Z" fill="#2F2E41"/>
<path id="Vector_50" d="M208.981 54.7253C211.454 54.7253 213.459 52.7206 213.459 50.2476C213.459 47.7746 211.454 45.7699 208.981 45.7699C206.509 45.7699 204.504 47.7746 204.504 50.2476C204.504 52.7206 206.509 54.7253 208.981 54.7253Z" fill="#2F2E41"/>
<path id="Vector_51" d="M225.463 64.7629C227.936 64.7629 229.94 62.7582 229.94 60.2852C229.94 57.8122 227.936 55.8075 225.463 55.8075C222.99 55.8075 220.985 57.8122 220.985 60.2852C220.985 62.7582 222.99 64.7629 225.463 64.7629Z" fill="#2F2E41"/>
<path id="Vector_52" d="M242.132 73.3609C244.507 73.3609 246.431 71.4361 246.431 69.0619C246.431 66.6876 244.507 64.7629 242.132 64.7629C239.758 64.7629 237.833 66.6876 237.833 69.0619C237.833 71.4361 239.758 73.3609 242.132 73.3609Z" fill="#2F2E41"/>
<path id="Vector_53" d="M417.051 556.437C419.524 556.437 421.528 554.432 421.528 551.959C421.528 549.486 419.524 547.481 417.051 547.481C414.578 547.481 412.573 549.486 412.573 551.959C412.573 554.432 414.578 556.437 417.051 556.437Z" fill="#0071F2"/>
<path id="Vector_54" d="M440.68 556.923C443.153 556.923 445.158 554.918 445.158 552.445C445.158 549.973 443.153 547.968 440.68 547.968C438.207 547.968 436.203 549.973 436.203 552.445C436.203 554.918 438.207 556.923 440.68 556.923Z" fill="#0071F2"/>
<path id="Vector_55" d="M464.518 556.566C466.893 556.566 468.817 554.641 468.817 552.267C468.817 549.893 466.893 547.968 464.518 547.968C462.144 547.968 460.219 549.893 460.219 552.267C460.219 554.641 462.144 556.566 464.518 556.566Z" fill="#0071F2"/>
<path id="Vector_56" d="M510.626 334.964H263.905C261.877 334.964 260.232 336.609 260.232 338.638V368.74C260.232 370.769 261.877 372.414 263.905 372.414H510.626C512.655 372.414 514.299 370.769 514.299 368.74V338.638C514.299 336.609 512.655 334.964 510.626 334.964Z" fill="#0071F2"/>
<path id="Vector_57" d="M271.133 339.978H502.356C503.382 339.978 504.367 340.386 505.093 341.112C505.82 341.838 506.228 342.823 506.228 343.85V362.624C506.228 363.651 505.82 364.636 505.093 365.362C504.367 366.089 503.382 366.497 502.356 366.497H271.133C270.664 366.497 270.215 366.31 269.884 365.979C269.552 365.647 269.366 365.198 269.366 364.729V341.745C269.366 341.276 269.552 340.827 269.884 340.495C270.215 340.164 270.664 339.978 271.133 339.978Z" stroke="white" stroke-width="1.98568" stroke-miterlimit="10"/>
<path id="last_circ" opacity="0.7" d="M298.387 357.889C301.156 357.889 303.4 355.644 303.4 352.875C303.4 350.106 301.156 347.861 298.387 347.861C295.618 347.861 293.373 350.106 293.373 352.875C293.373 355.644 295.618 357.889 298.387 357.889Z" fill="white"/>
<path id="Vector_58" opacity="0.7" d="M430.623 356.459C432.405 356.459 433.85 355.014 433.85 353.232C433.85 351.45 432.405 350.006 430.623 350.006C428.841 350.006 427.396 351.45 427.396 353.232C427.396 355.014 428.841 356.459 430.623 356.459Z" fill="white"/>
<path id="Vector_59" opacity="0.7" d="M448.613 352.875H497.759" stroke="white" stroke-width="2.97852" stroke-linecap="round" stroke-linejoin="round"/>
<path id="Vector_60" d="M510.854 389.431H263.677C261.774 389.431 260.232 390.974 260.232 392.876V423.436C260.232 425.339 261.774 426.881 263.677 426.881H510.854C512.757 426.881 514.299 425.339 514.299 423.436V392.876C514.299 390.974 512.757 389.431 510.854 389.431Z" fill="#0071F2"/>
<path id="Vector_61" d="M271.54 394.445H503.507C504.326 394.445 505.111 394.77 505.691 395.35C506.27 395.929 506.595 396.714 506.595 397.533V417.876C506.595 418.695 506.27 419.48 505.691 420.06C505.111 420.639 504.326 420.964 503.507 420.964H271.54C271.058 420.964 270.596 420.773 270.256 420.432C269.915 420.091 269.723 419.629 269.723 419.147V396.312C269.717 396.069 269.759 395.827 269.847 395.601C269.935 395.375 270.068 395.169 270.238 394.995C270.407 394.821 270.61 394.682 270.833 394.588C271.057 394.494 271.297 394.445 271.54 394.445Z" stroke="white" stroke-width="1.98568" stroke-miterlimit="10"/>
<path id="third_circ" opacity="0.7" d="M298.754 412.356C301.523 412.356 303.768 410.111 303.768 407.342C303.768 404.573 301.523 402.328 298.754 402.328C295.985 402.328 293.74 404.573 293.74 407.342C293.74 410.111 295.985 412.356 298.754 412.356Z" fill="white"/>
<path id="Vector_62" opacity="0.7" d="M430.98 411.055C432.762 411.055 434.207 409.611 434.207 407.829C434.207 406.046 432.762 404.602 430.98 404.602C429.198 404.602 427.754 406.046 427.754 407.829C427.754 409.611 429.198 411.055 430.98 411.055Z" fill="white"/>
<path id="Vector_63" opacity="0.7" d="M441.911 411.055C443.694 411.055 445.138 409.611 445.138 407.829C445.138 406.046 443.694 404.602 441.911 404.602C440.129 404.602 438.685 406.046 438.685 407.829C438.685 409.611 440.129 411.055 441.911 411.055Z" fill="white"/>
<path id="Vector_64" opacity="0.7" d="M452.843 411.055C454.625 411.055 456.069 409.611 456.069 407.829C456.069 406.046 454.625 404.602 452.843 404.602C451.061 404.602 449.616 406.046 449.616 407.829C449.616 409.611 451.061 411.055 452.843 411.055Z" fill="white"/>
<path id="Vector_65" opacity="0.7" d="M495.842 410.926C497.625 410.926 499.069 409.482 499.069 407.7C499.069 405.917 497.625 404.473 495.842 404.473C494.06 404.473 492.616 405.917 492.616 407.7C492.616 409.482 494.06 410.926 495.842 410.926Z" fill="white"/>
<path id="Vector_66" d="M506.674 443.898H267.857C263.646 443.898 260.232 447.312 260.232 451.523V473.723C260.232 477.934 263.646 481.348 267.857 481.348H506.674C510.886 481.348 514.299 477.934 514.299 473.723V451.523C514.299 447.312 510.886 443.898 506.674 443.898Z" fill="#0071F2"/>
<path id="Vector_67" d="M273.069 448.912H503.557C504.265 448.912 504.944 449.194 505.445 449.695C505.946 450.195 506.228 450.875 506.228 451.583V472.75C506.228 473.459 505.946 474.138 505.445 474.639C504.944 475.14 504.265 475.421 503.557 475.421H273.069C272.087 475.421 271.145 475.031 270.451 474.336C269.756 473.642 269.366 472.7 269.366 471.718V452.616C269.366 451.633 269.756 450.692 270.451 449.997C271.145 449.303 272.087 448.912 273.069 448.912Z" stroke="white" stroke-width="1.98568" stroke-miterlimit="10"/>
<path id="second_circ" opacity="0.7" d="M298.387 466.833C301.156 466.833 303.4 464.588 303.4 461.819C303.4 459.05 301.156 456.805 298.387 456.805C295.618 456.805 293.373 459.05 293.373 461.819C293.373 464.588 295.618 466.833 298.387 466.833Z" fill="white"/>
<path id="Vector_68" opacity="0.7" d="M458.75 463.606H497.094" stroke="white" stroke-width="2.97852" stroke-linecap="round" stroke-linejoin="round"/>
<path id="Vector_69" opacity="0.7" d="M428.29 463.606H449.08" stroke="white" stroke-width="2.97852" stroke-linecap="round" stroke-linejoin="round"/>
<path id="Vector_70" d="M504.758 498.365H269.773C264.504 498.365 260.232 502.637 260.232 507.907V526.274C260.232 531.544 264.504 535.815 269.773 535.815H504.758C510.028 535.815 514.299 531.544 514.299 526.274V507.907C514.299 502.637 510.028 498.365 504.758 498.365Z" fill="#0071F2"/>
<path id="Vector_71" d="M271.927 503.37H504.56C505.005 503.37 505.431 503.546 505.746 503.861C506.061 504.176 506.238 504.602 506.238 505.047V528.19C506.238 528.635 506.061 529.062 505.746 529.377C505.431 529.692 505.005 529.868 504.56 529.868H271.927C271.245 529.868 270.591 529.597 270.109 529.115C269.627 528.633 269.356 527.979 269.356 527.297V505.951C269.355 505.612 269.42 505.277 269.549 504.964C269.678 504.651 269.867 504.366 270.106 504.126C270.345 503.886 270.628 503.696 270.941 503.566C271.254 503.436 271.589 503.37 271.927 503.37Z" stroke="white" stroke-width="1.98568" stroke-miterlimit="10"/>
<path id="first_circ" opacity="0.7" d="M298.387 521.3C301.156 521.3 303.4 519.055 303.4 516.286C303.4 513.517 301.156 511.272 298.387 511.272C295.618 511.272 293.373 513.517 293.373 516.286C293.373 519.055 295.618 521.3 298.387 521.3Z" fill="white"/>
<path id="Vector_72" opacity="0.7" d="M465.74 520.228C467.522 520.228 468.966 518.783 468.966 517.001C468.966 515.219 467.522 513.774 465.74 513.774C463.958 513.774 462.513 515.219 462.513 517.001C462.513 518.783 463.958 520.228 465.74 520.228Z" fill="white"/>
<path id="Vector_73" opacity="0.7" d="M477.028 516.644H497.094" stroke="white" stroke-width="2.97852" stroke-linecap="round" stroke-linejoin="round"/>
<path id="Vector_74" opacity="0.7" d="M428.29 516.644H456.248" stroke="white" stroke-width="2.97852" stroke-linecap="round" stroke-linejoin="round"/>
</g>
</svg>
