<svg width="60" height="53" viewBox="0 0 60 53" fill="none" xmlns="http://www.w3.org/2000/svg">
<mask id="mask0_1_28" style="mask-type:luminance" maskUnits="userSpaceOnUse" x="0" y="0" width="60" height="53">
<path d="M59.6145 0H0.725464V53H59.6145V0Z" fill="white"/>
</mask>
<g mask="url(#mask0_1_28)">
<path d="M14.0049 9.22813V39.3208C13.9868 41.2125 13.2792 43.0202 12.036 44.351C10.7928 45.6818 9.11428 46.4282 7.3652 46.4282C5.6161 46.4282 3.93764 45.6818 2.69443 44.351C1.45121 43.0202 0.743654 41.2125 0.725464 39.3208V9.22813C0.726606 7.32359 1.42708 5.49751 2.67284 4.15151C3.9186 2.80552 5.60762 2.04983 7.36844 2.05065C8.46959 2.04749 9.55372 2.344 10.5212 2.91289C10.5362 2.91988 10.5427 2.92843 10.5499 2.92843C10.5536 2.93286 10.5587 2.93563 10.5642 2.9362C11.1149 3.26113 11.6182 3.67207 12.058 4.15575C12.6753 4.82094 13.1651 5.61145 13.4992 6.48191C13.8333 7.35238 14.0052 8.28565 14.0049 9.22813Z" fill="#0071F2"/>
<path d="M29.1789 15.7298V45.8147C29.1789 46.7578 29.0072 47.6916 28.6735 48.5629C28.3398 49.4342 27.8508 50.2258 27.2343 50.8927C26.6177 51.5596 25.8858 52.0886 25.0803 52.4494C24.2747 52.8103 23.4114 52.9961 22.5395 52.9961C21.6676 52.9961 20.8042 52.8103 19.9988 52.4494C19.1932 52.0886 18.4613 51.5596 17.8448 50.8927C17.2282 50.2258 16.7392 49.4342 16.4055 48.5629C16.0719 47.6916 15.9001 46.7578 15.9001 45.8147V15.7298C15.8999 14.7862 16.0716 13.8517 16.4054 12.9799C16.7392 12.1081 17.2285 11.3159 17.8454 10.6487C18.4623 9.9814 19.1947 9.4521 20.0007 9.09113C20.8068 8.73008 21.6707 8.54435 22.5431 8.54459C22.7801 8.54459 23.0099 8.56012 23.2326 8.58265H23.2476C24.8766 8.7742 26.3828 9.60956 27.4774 10.9284C28.572 12.2472 29.1779 13.9575 29.1789 15.7298Z" fill="#0071F2" fill-opacity="0.44"/>
<path d="M44.4398 7.17738V37.27C44.4398 39.1746 43.7403 41.0012 42.4951 42.348C41.25 43.6948 39.5612 44.4514 37.8004 44.4514C36.0395 44.4514 34.3508 43.6948 33.1056 42.348C31.8605 41.0012 31.161 39.1746 31.161 37.27V7.17738C31.161 6.23417 31.3329 5.3002 31.6668 4.42888C32.0008 3.55756 32.4902 2.76598 33.1072 2.09938C33.724 1.43279 34.4564 0.904268 35.2623 0.54402C36.0683 0.183774 36.9319 -0.00112415 37.804 -0.00010335C38.078 -0.00315648 38.3517 0.0176247 38.6227 0.0620393H38.637C40.0973 0.253133 41.4556 0.969969 42.4936 2.09721C43.1109 2.76393 43.6006 3.55584 43.9345 4.42758C44.2686 5.29932 44.4402 6.23376 44.4398 7.17738Z" fill="#0071F2"/>
<path d="M59.6145 15.3872V45.4729C59.6145 46.416 59.4427 47.3498 59.109 48.2211C58.7754 49.0924 58.2863 49.884 57.6698 50.5509C57.0533 51.2177 56.3213 51.7467 55.5159 52.1076C54.7103 52.4685 53.8469 52.6543 52.9751 52.6543C52.1032 52.6543 51.2398 52.4685 50.4343 52.1076C49.6287 51.7467 48.8968 51.2177 48.2803 50.5509C47.6638 49.884 47.1747 49.0924 46.8411 48.2211C46.5074 47.3498 46.3357 46.416 46.3357 45.4729V15.3872C46.3355 14.4436 46.5073 13.5093 46.8411 12.6374C47.1749 11.7656 47.6643 10.9735 48.2811 10.3063C48.898 9.63904 49.6304 9.10982 50.4364 8.74877C51.2424 8.38772 52.1062 8.20192 52.9787 8.20199C53.8573 8.19811 54.7273 8.38873 55.5353 8.76205H55.5425C55.5462 8.76648 55.5513 8.76928 55.5569 8.76982C56.3474 9.12714 57.0649 9.64984 57.6682 10.3079C58.2874 10.9729 58.7782 11.7645 59.1124 12.6364C59.4465 13.5084 59.6171 14.4434 59.6145 15.3872Z" fill="#0071F2" fill-opacity="0.44"/>
<g style="mix-blend-mode:multiply" opacity="0.3">
<path d="M14.0049 17.8892V39.3207C13.9868 41.2125 13.2792 43.0201 12.036 44.3508C10.7928 45.6817 9.11428 46.4281 7.3652 46.4281C5.6161 46.4281 3.93764 45.6817 2.69443 44.3508C1.45121 43.0201 0.743654 41.2125 0.725464 39.3207V38.0856C0.725464 38.0856 0.739828 38.2635 0.768554 38.5897C0.782918 38.9238 0.826007 39.4139 0.898541 40.0113C1.02089 40.7232 1.23331 41.4135 1.5298 42.0628C2.05403 43.216 2.87029 44.1845 3.88358 44.8557C4.89686 45.5267 6.06552 45.8727 7.25353 45.8535C7.79231 45.8474 8.32811 45.7665 8.84784 45.6127C9.94577 45.2783 10.9357 44.6192 11.7061 43.7095C12.4951 42.784 13.0146 41.6277 13.1999 40.3849C13.2143 40.2295 13.2502 40.1053 13.2573 39.9266L13.2868 39.3984C13.3004 39.1265 13.2932 38.7148 13.3004 38.3808C13.3004 37.6817 13.3076 36.9748 13.3148 36.2835C13.3148 34.893 13.3579 33.5259 13.373 32.1976C13.4225 29.5488 13.5015 27.0778 13.5949 24.958C13.768 20.7167 14.0049 17.8892 14.0049 17.8892Z" fill="black"/>
</g>
<g style="mix-blend-mode:overlay" opacity="0.6">
<path d="M10.5506 2.92851C10.3009 2.84047 10.0467 2.76786 9.78935 2.71101C9.12584 2.54466 8.44453 2.47672 7.76414 2.50905C7.55017 2.51769 7.33692 2.54104 7.1257 2.57896C6.9032 2.60854 6.68257 2.65264 6.46499 2.71101C4.98349 3.07345 3.66222 3.97575 2.72266 5.26663C2.39513 5.70072 2.12003 6.17814 1.90396 6.68737C1.69769 7.18041 1.54118 7.69607 1.43716 8.22541C1.38433 8.49472 1.34572 8.76698 1.32153 9.04103L1.29999 9.25076C1.29999 9.25853 1.29281 9.37505 1.28563 9.42942C1.27845 9.56924 1.27127 9.70906 1.25762 9.84112C1.22818 10.3849 1.1779 10.8975 1.13481 11.3714C1.04731 12.4294 0.91069 13.482 0.725464 14.5251V9.22746C0.72679 7.9815 1.02762 6.75739 1.59842 5.67519C2.16922 4.593 2.99038 3.68994 3.98129 3.05466C4.9722 2.41938 6.0988 2.07372 7.25051 2.05161C8.40223 2.02949 9.53943 2.33168 10.5506 2.92851Z" fill="white"/>
</g>
<g style="mix-blend-mode:multiply" opacity="0.3">
<path d="M29.1789 24.3591V45.8146C29.1789 46.7577 29.0072 47.6915 28.6735 48.5628C28.3398 49.4341 27.8508 50.2258 27.2343 50.8926C26.6177 51.5595 25.8858 52.0884 25.0803 52.4494C24.2747 52.8103 23.4114 52.996 22.5395 52.996C21.6676 52.996 20.8042 52.8103 19.9988 52.4494C19.1932 52.0884 18.4613 51.5595 17.8448 50.8926C17.2282 50.2258 16.7392 49.4341 16.4055 48.5628C16.0719 47.6915 15.9001 46.7577 15.9001 45.8146V44.9446C15.9001 44.9446 15.9145 45.1233 15.9432 45.4488C15.9687 45.9193 16.0287 46.3868 16.1228 46.847C16.4471 48.4465 17.2715 49.8761 18.4568 50.8948C19.2249 51.549 20.1217 52.0034 21.0781 52.2231C21.3225 52.2765 21.5694 52.3155 21.8178 52.3396C22.0902 52.3599 22.3635 52.3651 22.6365 52.3552C23.1775 52.3231 23.7129 52.2211 24.2315 52.0514C25.3057 51.6703 26.2637 50.9802 27.0029 50.0551C27.761 49.1142 28.2457 47.9523 28.3961 46.7149C28.4385 46.3957 28.4625 46.0741 28.4679 45.7517L28.4751 44.7023C28.4751 44.0032 28.4823 43.3041 28.4902 42.6135C28.4902 41.2386 28.5326 39.8792 28.5476 38.5587C28.5972 35.9324 28.6762 33.4785 28.7696 31.3734C28.9419 27.164 29.1789 24.3591 29.1789 24.3591Z" fill="black"/>
</g>
<g style="mix-blend-mode:overlay" opacity="0.6">
<path d="M23.2326 8.58265C23.1679 8.59896 22.9166 8.6378 22.5216 8.69994C22.2989 8.76209 22.0268 8.80869 21.7316 8.90191C21.4021 9.00592 21.0784 9.13013 20.7621 9.27399C20.3991 9.4476 20.0486 9.65042 19.7136 9.88066C19.3518 10.1399 19.0085 10.4281 18.6866 10.7429C18.358 11.0875 18.0598 11.4646 17.7961 11.8692C17.5247 12.2797 17.2936 12.7196 17.1067 13.182C16.9245 13.645 16.7852 14.1263 16.6908 14.619C16.6427 14.8654 16.6065 15.1143 16.5824 15.3648L16.5465 15.7368L16.5321 16.1415C16.4819 17.2057 16.4029 18.1992 16.3095 19.0545C16.222 20.0123 16.0854 20.964 15.9001 21.9053V15.7298C15.8999 14.7862 16.0716 13.8517 16.4054 12.9799C16.7392 12.1081 17.2285 11.3159 17.8454 10.6487C18.4623 9.9814 19.1947 9.4521 20.0007 9.09113C20.8068 8.73008 21.6707 8.54435 22.5431 8.54459C22.7801 8.54459 23.0099 8.56012 23.2326 8.58265Z" fill="white"/>
</g>
<g style="mix-blend-mode:multiply" opacity="0.3">
<path d="M44.4398 10.2535V37.27C44.4398 39.1747 43.7403 41.0013 42.4951 42.3481C41.25 43.6948 39.5612 44.4515 37.8004 44.4515C36.0395 44.4515 34.3508 43.6948 33.1056 42.3481C31.8605 41.0013 31.161 39.1747 31.161 37.27V36.6642C31.161 36.6642 31.1754 36.8584 31.2041 37.2235C31.243 37.7461 31.3271 38.2636 31.4555 38.7693C31.6621 39.5397 31.9874 40.2669 32.4178 40.9202C32.9578 41.7545 33.6616 42.4495 34.4789 42.9554C35.4276 43.5511 36.5059 43.8624 37.6029 43.8572C38.1843 43.8643 38.7634 43.7752 39.32 43.593C39.9057 43.4173 40.4629 43.1448 40.9718 42.7853C42.0306 42.0331 42.8484 40.9451 43.313 39.6704L43.4782 39.1888L43.5931 38.6831C43.6362 38.5129 43.6433 38.3498 43.6721 38.1867C43.7029 38.01 43.7173 37.8305 43.7151 37.6506C43.7511 36.9515 43.7151 36.1049 43.7223 35.3437C43.7295 33.7746 43.7367 32.2054 43.7511 30.6596C43.7511 29.1138 43.7941 27.5991 43.8085 26.131C43.8588 23.187 43.9378 20.4449 44.0311 18.0912C44.2028 13.3839 44.4398 10.2535 44.4398 10.2535Z" fill="black"/>
</g>
<g style="mix-blend-mode:overlay" opacity="0.6">
<path d="M38.6227 0.0620393C38.5293 0.077575 38.2923 0.116414 37.9404 0.163021C37.725 0.178557 37.4449 0.278762 37.1433 0.333137C36.8124 0.431927 36.4864 0.548854 36.1666 0.683467C35.7995 0.848961 35.4442 1.04369 35.1037 1.26606C34.7322 1.51171 34.3816 1.79245 34.0559 2.10498C33.8828 2.26034 33.732 2.44677 33.5747 2.61766C33.4311 2.81962 33.2652 2.99751 33.1359 3.20802C32.8553 3.61312 32.6169 4.05052 32.425 4.51224C32.2267 4.96979 32.075 5.4493 31.9725 5.9423C31.9438 6.19087 31.872 6.3773 31.8504 6.67247L31.8145 7.07562L31.8074 7.17738V7.18515L31.8002 7.19214V7.24729L31.793 7.44926C31.7427 8.52123 31.6637 9.51551 31.5704 10.37C31.4831 11.3303 31.3464 12.2847 31.161 13.2285V7.17738C31.161 6.23417 31.3329 5.3002 31.6668 4.42888C32.0008 3.55756 32.4902 2.76598 33.1072 2.09938C33.724 1.43279 34.4564 0.904268 35.2623 0.54402C36.0683 0.183774 36.9319 -0.00112415 37.804 -0.00010335C38.078 -0.00315648 38.3517 0.0176247 38.6227 0.0620393Z" fill="white"/>
</g>
<g style="mix-blend-mode:overlay" opacity="0.6">
<path d="M55.5353 8.76205C55.4707 8.74574 55.2121 8.69137 54.8028 8.63777C54.5658 8.6067 54.2785 8.59039 53.9554 8.58262C53.5952 8.58114 53.2354 8.60476 52.8781 8.65331C52.4658 8.71972 52.0579 8.8155 51.6573 8.93994C51.2255 9.09056 50.8072 9.2832 50.4077 9.51554C49.5538 10.021 48.8114 10.7206 48.2316 11.5662C47.935 11.9895 47.6845 12.4482 47.4847 12.9334C47.2924 13.4025 47.1455 13.8919 47.0467 14.3937C46.993 14.6468 46.9569 14.9039 46.9389 15.1628L46.9174 15.357L46.9102 15.3958L46.903 15.4261L46.8959 15.5278C46.8887 15.6599 46.8815 15.7842 46.8743 15.9162C46.8384 16.4289 46.7953 16.9183 46.745 17.3611C46.6579 18.3651 46.5212 19.3634 46.3357 20.3517V15.3872C46.3355 14.4436 46.5073 13.5093 46.8411 12.6374C47.1749 11.7656 47.6643 10.9735 48.2811 10.3063C48.898 9.63904 49.6304 9.10982 50.4364 8.74877C51.2424 8.38772 52.1062 8.20192 52.9787 8.20199C53.8573 8.19811 54.7273 8.38873 55.5353 8.76205Z" fill="white"/>
</g>
<g style="mix-blend-mode:multiply" opacity="0.3">
<path d="M59.6145 26.1776V45.473C59.6145 46.416 59.4427 47.3498 59.109 48.2211C58.7754 49.0924 58.2863 49.8841 57.6698 50.551C57.0533 51.2178 56.3213 51.7467 55.5159 52.1076C54.7103 52.4685 53.8469 52.6543 52.9751 52.6543C52.1032 52.6543 51.2398 52.4685 50.4343 52.1076C49.6287 51.7467 48.8968 51.2178 48.2803 50.551C47.6638 49.8841 47.1747 49.0924 46.8411 48.2211C46.5074 47.3498 46.3357 46.416 46.3357 45.473C46.3357 45.473 46.3572 45.6361 46.4003 45.9468C46.4184 46.131 46.452 46.313 46.5009 46.4906C46.5453 46.7363 46.6077 46.9778 46.6876 47.213C47.0519 48.4047 47.704 49.4694 48.5765 50.2971C49.449 51.1247 50.5101 51.6851 51.6501 51.9203C51.8871 51.9669 52.1097 51.9824 52.3467 52.0135L52.7489 52.0213H53.0146L53.1079 52.0057C53.6144 51.9772 54.1159 51.8833 54.6017 51.7261C55.6061 51.3896 56.5137 50.7795 57.2373 49.9542C57.6062 49.5303 57.9246 49.0583 58.1853 48.549C58.4328 48.0328 58.6187 47.4847 58.7383 46.9178C58.8024 46.642 58.848 46.3617 58.8748 46.0789L58.9035 45.5972V45.473L58.9107 45.3867V45.1466C58.9107 44.4941 58.9178 43.8409 58.925 43.197C58.925 41.9153 58.9681 40.6414 58.9825 39.4218C59.0327 36.9672 59.1117 34.6757 59.2051 32.7182C59.3775 28.7869 59.6145 26.1776 59.6145 26.1776Z" fill="black"/>
</g>
</g>
</svg>
